<?xml version="1.0" encoding="UTF-8"?><svg id="a" xmlns="http://www.w3.org/2000/svg" viewBox="0 0 198.32 198.32"><defs><style>.b{fill:#fff;}.c{fill:#c3151c;}.d{fill:#787878;}.e{stroke-linejoin:round;}.e,.f{stroke-linecap:round;}.e,.f,.g{stroke:#fff;}.e,.f,.g,.h{fill:none;stroke-width:4px;}.f,.g,.h{stroke-miterlimit:10;}.h{stroke:#787878;}</style></defs><line class="h" x1="161.65" y1="96.72" x2="135.65" y2="72.48"/><line class="h" x1="158.44" y1="34.55" x2="132.03" y2="58.36"/><line class="h" x1="47.89" y1="129.71" x2="67.65" y2="119.44"/><polyline class="h" points="43.68 57.36 91.34 87.12 91.66 25.13"/><g><path class="d" d="M59.46,172.58c-1.56,.47-2.9,.71-4.01,.71-1.89,0-3.44-.63-4.63-1.89s-1.79-2.89-1.79-4.89,.53-3.54,1.58-4.79,2.4-1.87,4.04-1.87c1.55,0,2.75,.55,3.6,1.66s1.27,2.67,1.27,4.71v.72h-8.11c.34,3.05,1.83,4.58,4.48,4.58,.97,0,2.16-.26,3.57-.78v1.85Zm-7.95-7.39h5.67c0-2.39-.89-3.58-2.67-3.58s-2.79,1.19-2.99,3.58Z"/><path class="d" d="M78.53,176.5c-2.75-.89-5.06-1.95-6.92-3.18-.74,.08-1.31,.12-1.72,.12-2.35,0-4.26-.85-5.73-2.55-1.47-1.7-2.21-3.92-2.21-6.64s.74-5.02,2.23-6.69c1.49-1.67,3.47-2.5,5.96-2.5s4.48,.84,5.96,2.51c1.48,1.67,2.22,3.91,2.22,6.72,0,4.02-1.5,6.81-4.48,8.35,2.01,.88,4.1,1.51,6.26,1.89l-1.57,1.98Zm-8.46-4.92c1.79,0,3.17-.64,4.15-1.93,.98-1.29,1.47-3.1,1.47-5.45s-.49-4.06-1.47-5.35c-.98-1.29-2.34-1.93-4.08-1.93s-3.1,.64-4.08,1.93c-.98,1.29-1.47,3.08-1.47,5.38s.49,4.08,1.46,5.39c.97,1.31,2.31,1.96,4.02,1.96Z"/><path class="d" d="M85.48,173v-15.65h-6.21v-1.86h14.91v1.86h-6.21v15.65h-2.48Z"/><path class="d" d="M96.16,173v-17.51h2.48v15.65h7.88v1.86h-10.36Z"/><path class="c" d="M122.5,172.58c-2.19,.57-4.09,.85-5.68,.85-3.02,0-5.34-.79-6.96-2.38-1.62-1.59-2.43-3.87-2.43-6.83s.81-5.21,2.43-6.79c1.62-1.58,3.93-2.38,6.93-2.38,1.92,0,3.82,.22,5.7,.67v2.85c-2.19-.75-3.98-1.12-5.38-1.12-1.85,0-3.29,.59-4.29,1.77-1.01,1.18-1.51,2.86-1.51,5.03s.54,3.74,1.62,4.94c1.08,1.19,2.57,1.79,4.47,1.79,.42,0,.91-.06,1.47-.18v-5.76h3.64v7.54Z"/><path class="c" d="M136.67,172.56c-1.66,.49-3.24,.73-4.73,.73-2.17,0-3.88-.62-5.13-1.85s-1.88-2.91-1.88-5.04c0-2.01,.57-3.63,1.72-4.86,1.15-1.23,2.66-1.84,4.55-1.84s3.29,.6,4.16,1.8c.88,1.2,1.31,3.1,1.31,5.69h-8.06c.24,2.48,1.6,3.71,4.08,3.71,1.17,0,2.5-.27,3.97-.82v2.46Zm-8.1-7.33h4.66c0-2.22-.71-3.32-2.14-3.32s-2.29,1.11-2.52,3.32Z"/><path class="c" d="M139.81,173v-12.99h3.5v2.45c1.14-1.83,2.62-2.74,4.42-2.74,1.16,0,2.07,.37,2.74,1.1,.67,.73,1.01,1.74,1.01,3v9.18h-3.5v-8.32c0-1.47-.49-2.21-1.47-2.21-1.11,0-2.18,.79-3.21,2.35v8.17h-3.5Z"/></g><path class="c" d="M120.19,95.29c-8.19-20.08-28.64-43.19-28.64-51.96,0,8.9-21.08,32.34-29.01,52.73-1.91,4.1-2.98,8.66-2.98,13.47,0,17.67,14.32,31.99,31.99,31.99s31.99-14.32,31.99-31.99c0-5.12-1.21-9.96-3.35-14.25Z"/><path class="e" d="M120.19,95.29c-8.19-20.08-28.64-43.19-28.64-51.96,0,8.9-21.08,32.34-29.01,52.73-1.91,4.1-2.98,8.66-2.98,13.47,0,17.67,14.32,31.99,31.99,31.99s31.99-14.32,31.99-31.99c0-5.12-1.21-9.96-3.35-14.25Z"/><path class="f" d="M80.16,128.3c-10.02-6.18-13.13-19.3-6.96-29.32"/><path class="c" d="M146.34,63.19c-4.09-10.03-14.3-21.57-14.3-25.95,0,4.45-10.53,16.15-14.49,26.34-.95,2.05-1.49,4.32-1.49,6.73,0,8.82,7.15,15.98,15.98,15.98s15.98-7.15,15.98-15.98c0-2.56-.6-4.97-1.67-7.12Z"/><path class="g" d="M146.34,63.19c-4.09-10.03-14.3-21.57-14.3-25.95,0,4.45-10.53,16.15-14.49,26.34-.95,2.05-1.49,4.32-1.49,6.73,0,8.82,7.15,15.98,15.98,15.98s15.98-7.15,15.98-15.98c0-2.56-.6-4.97-1.67-7.12Z"/><path class="f" d="M128.09,77.01c-3.53-2.18-4.63-6.8-2.45-10.33"/><circle class="c" cx="158.44" cy="34.55" r="9.78"/><circle class="c" cx="43.68" cy="57.36" r="9.78"/><circle class="b" cx="43.68" cy="57.36" r="4.83"/><circle class="b" cx="158.44" cy="34.55" r="4.83"/><circle class="d" cx="91.66" cy="25.13" r="6.21"/><circle class="d" cx="47.89" cy="129.71" r="6.21"/><circle class="c" cx="161.65" cy="96.72" r="6.21"/><path class="d" d="M91.54,40.33c0,3,1.99,7.9,1.99,7.9v-7.9h-1.99Z"/><path class="d" d="M91.54,40.33c0,3-1.99,7.9-1.99,7.9v-4.9s0-3,0-3h1.99Z"/></svg>