<?xml version="1.0" encoding="utf-8"?>
<!-- Generator: Adobe Illustrator 26.0.1, SVG Export Plug-In . SVG Version: 6.00 Build 0)  -->
<svg version="1.1" id="Layer_1" xmlns="http://www.w3.org/2000/svg" xmlns:xlink="http://www.w3.org/1999/xlink" x="0px" y="0px"
	 viewBox="0 0 352.25 69.98" style="enable-background:new 0 0 352.25 69.98;" xml:space="preserve">
<style type="text/css">
	.st0{fill:#4B4B4B;}
	.st1{enable-background:new    ;}
</style>
<path class="st0" d="M13.85,64.39c0.01-0.4,0.02-0.8,0.02-1.21c0-0.12,0-0.23,0.01-0.32c0-0.05,0.02-0.08,0.03-0.1
	c0.01-0.01,0.03-0.04,0.11-0.06c0.05-0.02,0.16-0.04,0.36-0.04c0.12,0,0.23-0.02,0.33-0.04c0.19-0.06,0.3-0.22,0.3-0.43
	c0-0.11-0.05-0.21-0.14-0.3l-0.07-0.08h-1.03c-0.11,0-0.22,0.01-0.33,0.02c-0.3,0.03-0.58,0.02-0.79-0.01
	c-0.17-0.02-0.36-0.04-0.58-0.04h-0.12c-0.07,0-0.15,0.01-0.23,0.02c-0.2,0.03-0.32,0.18-0.32,0.38c0,0.29,0.18,0.4,0.26,0.43
	c0.1,0.04,0.21,0.06,0.33,0.07c0.09,0.01,0.18,0.02,0.28,0.04c0.05,0.01,0.09,0.03,0.11,0.04c0,0,0.02,0.04,0.05,0.18
	c0.02,0.13,0.03,0.24,0.03,0.35v0.2c0,0.17,0,0.35,0,0.52c0,0.18-0.01,0.36-0.01,0.54l-0.01,0.98c0,0.12-0.01,0.25-0.03,0.39
	c-0.01,0.1-0.04,0.13-0.05,0.14c-0.04,0.03-0.09,0.06-0.15,0.07c-0.1,0.02-0.2,0.04-0.29,0.06c-0.11,0.02-0.2,0.05-0.29,0.08
	c-0.18,0.06-0.28,0.2-0.28,0.38c0,0.19,0.1,0.35,0.27,0.41c0.1,0.04,0.2,0.05,0.3,0.05h0.15c0.11,0,0.21,0,0.3-0.01
	c0.08-0.01,0.16-0.02,0.24-0.03c0.06-0.01,0.13-0.02,0.2-0.02c0.21-0.02,0.53-0.01,0.82,0.02c0.32,0.03,0.66,0.05,0.96,0.02
	c0.24-0.02,0.39-0.19,0.39-0.44c0-0.18-0.12-0.33-0.31-0.38c-0.09-0.03-0.18-0.05-0.3-0.07c-0.1-0.02-0.21-0.04-0.31-0.06
	c-0.07-0.01-0.11-0.03-0.14-0.05c-0.02-0.02-0.04-0.05-0.06-0.11c-0.02-0.09-0.03-0.18-0.04-0.27v-0.12
	C13.83,65.19,13.84,64.79,13.85,64.39"/>
<path class="st0" d="M20.71,62.63c-0.2-0.22-0.44-0.39-0.72-0.52c-0.46-0.2-1.04-0.25-1.55-0.1c-0.19,0.06-0.37,0.13-0.53,0.21
	c-0.05,0.02-0.09,0.05-0.14,0.08c0.11-0.31,0.25-0.61,0.41-0.89c0.28-0.5,0.65-0.94,1.1-1.33c0.1-0.09,0.2-0.17,0.31-0.25
	c0.1-0.07,0.21-0.15,0.31-0.2c0.03-0.01,0.07-0.04,0.14-0.07c0.08-0.03,0.15-0.07,0.22-0.11c0.08-0.05,0.16-0.09,0.22-0.15
	c0.12-0.1,0.18-0.2,0.18-0.32s-0.05-0.23-0.14-0.32c-0.05-0.05-0.1-0.09-0.16-0.12l-0.07-0.04l-0.08,0.01
	c-0.1,0.01-0.22,0.04-0.35,0.09c-0.11,0.04-0.2,0.08-0.28,0.12c-0.51,0.23-0.98,0.53-1.42,0.89s-0.83,0.76-1.16,1.21
	s-0.6,0.95-0.78,1.48c-0.19,0.53-0.29,1.1-0.29,1.69c0,0.3,0.03,0.6,0.1,0.89s0.16,0.57,0.3,0.83s0.31,0.5,0.53,0.7
	c0.22,0.21,0.48,0.38,0.79,0.51c0.37,0.15,0.75,0.23,1.12,0.23c0.39,0,0.74-0.08,1.06-0.24c0.31-0.16,0.59-0.37,0.81-0.64
	s0.39-0.57,0.52-0.9c0.13-0.34,0.18-0.69,0.18-1.05c0-0.34-0.05-0.65-0.15-0.94C21.06,63.1,20.91,62.84,20.71,62.63 M19.21,66.17
	c-0.14,0.1-0.3,0.14-0.51,0.14c-0.25,0-0.44-0.06-0.59-0.17c-0.16-0.13-0.29-0.29-0.39-0.48c-0.1-0.21-0.17-0.45-0.22-0.69
	c-0.04-0.26-0.06-0.5-0.06-0.74c0-0.12,0.01-0.24,0.01-0.35l0.03-0.27c0.05-0.05,0.11-0.12,0.18-0.18c0.09-0.09,0.2-0.17,0.31-0.25
	c0.11-0.07,0.23-0.14,0.35-0.19c0.32-0.13,0.65-0.07,0.88,0.06c0.15,0.09,0.27,0.2,0.37,0.35s0.18,0.33,0.23,0.52
	c0.05,0.2,0.08,0.42,0.08,0.63c0,0.2-0.02,0.41-0.07,0.63c-0.04,0.21-0.12,0.4-0.22,0.58C19.48,65.93,19.35,66.06,19.21,66.17"/>
<path class="st0" d="M25.71,65.15c-0.2-0.19-0.45-0.34-0.74-0.43c-0.09-0.03-0.18-0.05-0.27-0.07c0.12-0.12,0.24-0.26,0.35-0.4
	c0.15-0.19,0.28-0.38,0.38-0.58c0.12-0.22,0.18-0.43,0.18-0.63c0-0.26-0.05-0.49-0.15-0.67c-0.1-0.18-0.22-0.33-0.38-0.45
	s-0.33-0.2-0.52-0.25c-0.37-0.1-0.76-0.11-1.17,0.05c-0.19,0.08-0.36,0.17-0.52,0.28s-0.3,0.24-0.4,0.37
	c-0.13,0.17-0.19,0.33-0.17,0.51c0.01,0.1,0.07,0.19,0.15,0.27c0.09,0.07,0.17,0.09,0.23,0.09c0.08,0,0.16-0.04,0.24-0.11
	c0.15-0.17,0.3-0.31,0.42-0.41c0.18-0.15,0.55-0.18,0.79,0.06c0.11,0.11,0.17,0.3,0.17,0.57c0,0.14-0.04,0.29-0.13,0.45
	c-0.1,0.18-0.23,0.34-0.38,0.5s-0.32,0.31-0.5,0.44c-0.18,0.13-0.34,0.24-0.48,0.31l-0.21,0.1c-0.25,0.12-0.29,0.3-0.29,0.4
	c0,0.26,0.17,0.44,0.42,0.44c0.1,0,0.19-0.04,0.33-0.14c0.07-0.05,0.12-0.08,0.18-0.11c0.09-0.05,0.17-0.07,0.26-0.07h0.05
	c0.15,0.01,0.29,0.03,0.42,0.06c0.14,0.03,0.26,0.08,0.37,0.16s0.2,0.18,0.28,0.29c0.08,0.12,0.14,0.26,0.18,0.4
	c0.04,0.15,0.07,0.3,0.07,0.44c0,0.28-0.06,0.54-0.17,0.76c-0.12,0.23-0.27,0.44-0.47,0.62s-0.45,0.35-0.72,0.48
	c-0.27,0.13-0.57,0.25-0.87,0.33c-0.1,0.01-0.18,0.06-0.23,0.14c-0.04,0.06-0.07,0.13-0.08,0.21c-0.01,0.1,0.01,0.19,0.07,0.27
	c0.04,0.05,0.13,0.15,0.31,0.15l0,0l0,0c0.4-0.01,0.81-0.1,1.23-0.27s0.8-0.41,1.15-0.7c0.35-0.3,0.64-0.64,0.87-1.03
	c0.23-0.4,0.35-0.84,0.35-1.28c0-0.3-0.05-0.59-0.16-0.85C26.06,65.57,25.91,65.34,25.71,65.15"/>
<path class="st0" d="M31.87,65.06c-0.04-0.09-0.12-0.21-0.31-0.28c-0.19-0.08-0.39-0.02-0.52,0.16l-0.3,0.43
	c-0.07,0.1-0.15,0.21-0.23,0.32s-0.15,0.21-0.22,0.29c0,0-0.05,0.04-0.24,0.08s-0.4,0.06-0.62,0.07c-0.2,0.01-0.38,0.01-0.56,0
	c0.06-0.07,0.13-0.14,0.21-0.22c0.15-0.15,0.3-0.33,0.45-0.52c0.16-0.19,0.31-0.39,0.46-0.59c0.14-0.2,0.27-0.4,0.37-0.58
	c0.11-0.2,0.19-0.38,0.23-0.54c0.17-0.61,0.11-1.12-0.17-1.5c-0.29-0.39-0.73-0.59-1.33-0.59c-0.11,0-0.22,0.01-0.33,0.01
	c-0.12,0.01-0.25,0.03-0.38,0.07s-0.27,0.11-0.41,0.21c-0.14,0.09-0.28,0.22-0.43,0.39c-0.03,0.03-0.07,0.07-0.11,0.14l-0.11,0.15
	c-0.05,0.07-0.09,0.14-0.12,0.2c-0.04,0.09-0.06,0.16-0.06,0.23c0,0.13,0.06,0.25,0.17,0.33c0.12,0.08,0.26,0.1,0.39,0.03
	c0.09-0.04,0.17-0.13,0.23-0.24c0.03-0.05,0.07-0.11,0.13-0.18c0.05-0.06,0.12-0.11,0.21-0.15c0.06-0.03,0.18-0.06,0.4-0.06
	c0.4,0,0.51,0.16,0.55,0.22c0.1,0.15,0.09,0.38-0.02,0.68c-0.08,0.18-0.18,0.39-0.31,0.61c-0.13,0.23-0.28,0.48-0.45,0.72
	c-0.17,0.25-0.35,0.5-0.55,0.75s-0.39,0.48-0.57,0.69c-0.11,0.11-0.13,0.22-0.13,0.29s0,0.27,0.15,0.38
	c0.07,0.06,0.16,0.09,0.26,0.1l0.07,0.01c0.14,0,0.24-0.09,0.3-0.16c0.16,0,0.34,0,0.54-0.01c0.23,0,0.43-0.01,0.61-0.01
	c0.43,0.01,0.8,0.04,1.08,0.09c0.3,0.05,0.56,0.08,0.75,0.09h0.04c0.16,0,0.32-0.11,0.34-0.35c0.01-0.07,0.02-0.18,0.04-0.33
	c0.02-0.14,0.06-0.31,0.13-0.52c0.06-0.2,0.17-0.44,0.34-0.7l0.07-0.12L31.87,65.06z"/>
<polygon class="st0" points="1,14.97 21.97,4.99 42.94,14.97 "/>
<rect y="16.97" class="st0" width="43.93" height="2"/>
<rect y="47.93" class="st0" width="11.98" height="5.99"/>
<rect x="31.96" y="47.93" class="st0" width="11.98" height="5.99"/>
<rect x="15.98" y="47.93" class="st0" width="3.99" height="5.99"/>
<rect x="23.97" y="47.93" class="st0" width="3.99" height="5.99"/>
<polygon class="st0" points="3.5,20.96 4,45.93 0.01,45.93 0.5,20.96 "/>
<polygon class="st0" points="11.49,20.96 11.99,45.93 7.99,45.93 8.49,20.96 "/>
<polygon class="st0" points="19.48,20.96 19.97,45.93 15.98,45.93 16.48,20.96 "/>
<polygon class="st0" points="27.46,20.96 27.96,45.93 23.97,45.93 24.46,20.96 "/>
<polygon class="st0" points="35.45,20.96 35.95,45.93 31.96,45.93 32.46,20.96 "/>
<polygon class="st0" points="43.44,20.96 43.94,45.93 39.95,45.93 40.44,20.96 "/>
<polygon class="st0" points="21.97,0 0,10.48 0,12.98 21.97,2.49 43.94,12.98 43.94,10.48 "/>
<g class="st1">
	<path class="st0" d="M66.6,53.64v0.03V30.36h1.86v23.31H66.6V53.64z"/>
	<path class="st0" d="M74.63,53.67v0.03V40.32c0-0.93-0.07-1.66-0.2-2.19s-0.27-0.93-0.4-1.2l1.79-0.46
		c0.04,0.09,0.13,0.38,0.27,0.86c0.13,0.49,0.21,1.11,0.23,1.86c0.84-0.88,1.73-1.56,2.66-2.03c0.91-0.46,1.85-0.7,2.82-0.7
		c0.89,0,1.66,0.18,2.32,0.53c0.66,0.35,1.16,0.84,1.49,1.46c0.2,0.31,0.37,0.66,0.5,1.06c0.11,0.4,0.17,0.82,0.17,1.26v12.88h-1.86
		V41.72c0-0.77-0.07-1.37-0.2-1.79c-0.13-0.42-0.33-0.79-0.6-1.1c-0.22-0.24-0.53-0.43-0.93-0.56c-0.4-0.15-0.84-0.23-1.33-0.23
		c-0.8,0-1.65,0.23-2.56,0.7c-0.93,0.49-1.75,1.13-2.46,1.93v13.02h-1.79h0.08V53.67z"/>
	<path class="st0" d="M96.18,54v0.03c-1.08,0-2.14-0.14-3.15-0.43c-1.02-0.29-1.93-0.69-2.72-1.2l0.73-1.36
		c0.77,0.49,1.6,0.86,2.49,1.13s1.81,0.4,2.79,0.4c1.24,0,2.21-0.31,2.92-0.93c0.69-0.62,1.03-1.45,1.03-2.49
		c0-0.8-0.24-1.46-0.73-1.99c-0.49-0.53-1.28-0.92-2.39-1.16l-2.13-0.4c-1.33-0.27-2.35-0.77-3.05-1.53
		c-0.71-0.75-1.06-1.73-1.06-2.92c0.02-1.44,0.53-2.6,1.53-3.49c1-0.88,2.37-1.34,4.12-1.36c0.91,0,1.78,0.12,2.62,0.37
		c0.84,0.22,1.59,0.53,2.26,0.93l-0.73,1.36c-0.62-0.35-1.27-0.64-1.96-0.86s-1.41-0.33-2.16-0.33c-1.2,0.02-2.1,0.32-2.72,0.9
		s-0.93,1.33-0.93,2.26c0,0.8,0.23,1.44,0.7,1.93c0.46,0.46,1.17,0.8,2.13,1l2.19,0.46c1.53,0.31,2.65,0.85,3.35,1.63
		c0.69,0.78,1.03,1.74,1.03,2.89c-0.02,1.59-0.56,2.86-1.63,3.79c-1.06,0.95-2.51,1.44-4.35,1.46L96.18,54z"/>
	<path class="st0" d="M110.26,54.27v0.03c-0.46,0-0.87-0.07-1.23-0.2c-0.35-0.11-0.66-0.25-0.93-0.43c-0.44-0.27-0.77-0.66-1-1.2
		c-0.22-0.53-0.33-1.18-0.33-1.96V38.27h-2.19v-1.39h2.19c0-0.6,0.02-1.21,0.07-1.83c0.04-0.62,0.09-1.17,0.13-1.66
		c0.04-0.46,0.09-0.76,0.13-0.9l1.96-0.4c-0.04,0.13-0.09,0.44-0.13,0.93c-0.04,0.46-0.09,1.03-0.13,1.69s-0.07,1.37-0.07,2.13h4.18
		l-0.6,1.39h-3.65v11.75c0,0.93,0.18,1.63,0.53,2.09s0.95,0.7,1.79,0.7c0.4,0,0.73-0.03,1-0.1c0.29-0.07,0.54-0.15,0.76-0.27
		l0.27,1.2c-0.35,0.18-0.75,0.31-1.2,0.4c-0.44,0.09-0.93,0.13-1.46,0.13L110.26,54.27z"/>
	<path class="st0" d="M117.67,32.89c-0.42,0-0.77-0.14-1.06-0.43c-0.29-0.27-0.43-0.61-0.43-1.03s0.14-0.76,0.43-1.03
		c0.29-0.29,0.64-0.43,1.06-0.43c0.4,0,0.74,0.13,1.03,0.4s0.43,0.62,0.43,1.06c0,0.42-0.14,0.76-0.43,1.03
		C118.41,32.74,118.06,32.89,117.67,32.89z M116.67,53.61v0.03V36.71l1.93-0.3v17.27h-1.93V53.61z"/>
	<path class="st0" d="M128.06,54.27v0.03c-0.46,0-0.87-0.07-1.23-0.2c-0.35-0.11-0.66-0.25-0.93-0.43c-0.44-0.27-0.77-0.66-1-1.2
		c-0.22-0.53-0.33-1.18-0.33-1.96V38.27h-2.19v-1.39h2.19c0-0.6,0.02-1.21,0.07-1.83c0.04-0.62,0.09-1.17,0.13-1.66
		c0.04-0.46,0.09-0.76,0.13-0.9l1.96-0.4c-0.04,0.13-0.09,0.44-0.13,0.93c-0.04,0.46-0.09,1.03-0.13,1.69s-0.07,1.37-0.07,2.13h4.18
		l-0.6,1.39h-3.65v11.75c0,0.93,0.18,1.63,0.53,2.09s0.95,0.7,1.79,0.7c0.4,0,0.73-0.03,1-0.1c0.29-0.07,0.54-0.15,0.76-0.27
		l0.27,1.2c-0.35,0.18-0.75,0.31-1.2,0.4c-0.44,0.09-0.93,0.13-1.46,0.13L128.06,54.27z"/>
	<path class="st0" d="M145.89,54.17v0.03c-0.4-0.35-0.71-0.74-0.93-1.16c-0.22-0.42-0.38-0.96-0.46-1.63
		c-0.66,0.89-1.46,1.55-2.39,1.99c-0.93,0.46-1.95,0.7-3.05,0.7c-0.97,0-1.79-0.18-2.46-0.53s-1.16-0.84-1.49-1.46
		c-0.22-0.31-0.39-0.7-0.5-1.16c-0.13-0.44-0.2-0.94-0.2-1.49V36.84l1.79-0.4v12.48c0,0.71,0.09,1.29,0.27,1.76
		c0.18,0.44,0.44,0.81,0.8,1.1c0.27,0.22,0.6,0.4,1,0.53s0.83,0.2,1.29,0.2c0.89,0,1.75-0.27,2.59-0.8s1.55-1.28,2.13-2.26V36.8
		l1.86-0.33v12.95c0,1,0.07,1.76,0.2,2.29c0.13,0.51,0.35,0.93,0.66,1.26l-1.23,1.23L145.89,54.17z"/>
	<path class="st0" d="M155.52,54.27v0.03c-0.46,0-0.87-0.07-1.23-0.2c-0.35-0.11-0.66-0.25-0.93-0.43c-0.44-0.27-0.77-0.66-1-1.2
		c-0.22-0.53-0.33-1.18-0.33-1.96V38.27h-2.19v-1.39h2.19c0-0.6,0.02-1.21,0.07-1.83c0.04-0.62,0.09-1.17,0.13-1.66
		c0.04-0.46,0.09-0.76,0.13-0.9l1.96-0.4c-0.04,0.13-0.09,0.44-0.13,0.93c-0.04,0.46-0.09,1.03-0.13,1.69
		c-0.04,0.66-0.07,1.37-0.07,2.13h4.18l-0.6,1.39h-3.65v11.75c0,0.93,0.18,1.63,0.53,2.09s0.95,0.7,1.79,0.7c0.4,0,0.73-0.03,1-0.1
		c0.29-0.07,0.54-0.15,0.76-0.27l0.27,1.2c-0.35,0.18-0.75,0.31-1.2,0.4c-0.44,0.09-0.93,0.13-1.46,0.13L155.52,54.27z"/>
	<path class="st0" d="M168.13,54.04c-1.55,0-2.86-0.38-3.92-1.13s-1.87-1.79-2.42-3.12c-0.55-1.33-0.83-2.89-0.83-4.68
		c0-1.44,0.17-2.67,0.5-3.69c0.33-1.04,0.83-1.96,1.49-2.76c0.58-0.69,1.26-1.23,2.06-1.63s1.7-0.6,2.72-0.6
		c0.91,0,1.72,0.16,2.42,0.46c0.71,0.31,1.32,0.72,1.83,1.23c0.44,0.44,0.81,0.95,1.1,1.53c0.29,0.58,0.5,1.28,0.63,2.13
		c0.13,0.84,0.2,1.88,0.2,3.12v0.4h-10.89v0.86c0.02,0.91,0.13,1.72,0.33,2.42c0.2,0.71,0.45,1.31,0.76,1.79
		c0.46,0.69,1.07,1.21,1.83,1.56c0.75,0.35,1.6,0.53,2.56,0.53c0.84,0,1.62-0.12,2.32-0.37c0.71-0.27,1.35-0.66,1.93-1.2l0.73,1.2
		c-0.71,0.62-1.52,1.08-2.42,1.39c-0.89,0.33-1.87,0.5-2.96,0.5L168.13,54.04z M162.95,43.74v0.03h8.9c0-1.02-0.08-1.86-0.23-2.52
		c-0.16-0.69-0.37-1.25-0.63-1.69c-0.33-0.53-0.79-0.96-1.36-1.29c-0.58-0.31-1.26-0.46-2.06-0.46c-1.28,0-2.35,0.51-3.19,1.53
		c-0.82,1-1.28,2.5-1.39,4.52L162.95,43.74z"/>
	<path class="st0" d="M191.97,54.04c-1.31-0.02-2.41-0.3-3.32-0.83c-0.91-0.53-1.63-1.21-2.16-2.03c-0.51-0.75-0.9-1.64-1.16-2.66
		c-0.27-1.02-0.4-2.17-0.4-3.45c0-1.33,0.15-2.52,0.46-3.59c0.31-1.06,0.75-1.97,1.33-2.72c0.53-0.71,1.24-1.29,2.13-1.76
		c0.89-0.44,1.93-0.67,3.12-0.7c1.39,0.02,2.55,0.32,3.45,0.9c0.91,0.58,1.6,1.25,2.09,2.03c0.49,0.75,0.86,1.64,1.13,2.66
		s0.4,2.19,0.4,3.52c0,1.15-0.11,2.18-0.33,3.09c-0.22,0.93-0.53,1.75-0.93,2.46c-0.53,0.93-1.28,1.68-2.26,2.26
		c-0.95,0.58-2.09,0.86-3.42,0.86L191.97,54.04z M192.11,52.58v0.03c1.02,0,1.86-0.24,2.52-0.73c0.66-0.49,1.15-1.11,1.46-1.86
		c0.31-0.66,0.53-1.33,0.66-1.99s0.2-1.48,0.2-2.46c0-1.2-0.09-2.24-0.27-3.12c-0.18-0.88-0.42-1.64-0.73-2.26
		c-0.35-0.69-0.89-1.24-1.59-1.66c-0.71-0.42-1.53-0.63-2.46-0.63c-0.93,0.02-1.73,0.23-2.39,0.63s-1.15,0.89-1.46,1.46
		c-0.31,0.58-0.55,1.27-0.73,2.09s-0.27,1.76-0.27,2.82c0,1.22,0.11,2.31,0.33,3.29c0.2,0.97,0.48,1.75,0.83,2.32
		c0.33,0.53,0.83,1,1.49,1.39s1.46,0.61,2.39,0.63v0.05H192.11z"/>
	<path class="st0" d="M204.03,53.74v0.03V38.23h-1.63v-1.39h1.63v-3.19c0.02-1.04,0.19-1.84,0.5-2.39c0.31-0.58,0.63-0.98,0.96-1.23
		c0.35-0.29,0.75-0.51,1.2-0.66c0.44-0.18,0.95-0.27,1.53-0.27c0.62,0,1.21,0.08,1.76,0.23c0.55,0.13,1.05,0.34,1.49,0.63
		l-0.73,1.33c-0.33-0.22-0.7-0.4-1.1-0.53c-0.42-0.13-0.85-0.2-1.29-0.2c-0.8,0-1.41,0.27-1.83,0.8c-0.42,0.53-0.63,1.28-0.63,2.26
		v3.12h4.48l-0.53,1.39h-3.92v15.54h-1.93L204.03,53.74z"/>
	<path class="st0" d="M229.39,53.77v0.03c-1.46,0-2.79-0.25-3.98-0.76c-1.2-0.51-2.24-1.29-3.12-2.36
		c-0.84-1.02-1.48-2.26-1.93-3.72c-0.44-1.46-0.66-3.14-0.66-5.05c0-2.01,0.24-3.77,0.73-5.28c0.49-1.53,1.24-2.84,2.26-3.95
		c0.8-0.88,1.7-1.56,2.72-2.03c1.02-0.46,2.17-0.7,3.45-0.7c1.2,0,2.3,0.18,3.32,0.53s1.95,0.89,2.79,1.59l-0.86,1.23
		c-0.89-0.62-1.74-1.06-2.56-1.33c-0.82-0.27-1.69-0.4-2.62-0.4c-1.33,0-2.5,0.33-3.52,1c-1.02,0.66-1.79,1.62-2.32,2.86
		c-0.4,0.97-0.71,2.01-0.93,3.12c-0.22,1.11-0.33,2.29-0.33,3.55c0,1.59,0.15,3.03,0.46,4.32c0.31,1.28,0.73,2.32,1.26,3.12
		c0.66,0.93,1.53,1.63,2.59,2.09c1.06,0.49,2.19,0.73,3.39,0.73c0.8,0,1.55-0.09,2.26-0.27c0.73-0.18,1.38-0.44,1.96-0.8v-7.97
		h-5.31l-0.4-1.59h7.57v10.59c-0.84,0.53-1.79,0.94-2.86,1.23c-1.08,0.29-2.2,0.43-3.35,0.43v-0.21H229.39z"/>
	<path class="st0" d="M247.52,54.04c-1.55,0-2.86-0.38-3.92-1.13s-1.87-1.79-2.42-3.12c-0.55-1.33-0.83-2.89-0.83-4.68
		c0-1.44,0.17-2.67,0.5-3.69c0.33-1.04,0.83-1.96,1.49-2.76c0.58-0.69,1.26-1.23,2.06-1.63s1.7-0.6,2.72-0.6
		c0.91,0,1.71,0.16,2.42,0.46c0.71,0.31,1.32,0.72,1.83,1.23c0.44,0.44,0.81,0.95,1.1,1.53c0.29,0.58,0.5,1.28,0.63,2.13
		c0.13,0.84,0.2,1.88,0.2,3.12v0.4h-10.89v0.86c0.02,0.91,0.13,1.72,0.33,2.42c0.2,0.71,0.45,1.31,0.76,1.79
		c0.46,0.69,1.07,1.21,1.83,1.56c0.75,0.35,1.6,0.53,2.56,0.53c0.84,0,1.62-0.12,2.32-0.37c0.71-0.27,1.35-0.66,1.93-1.2l0.73,1.2
		c-0.71,0.62-1.52,1.08-2.42,1.39c-0.89,0.33-1.87,0.5-2.96,0.5L247.52,54.04z M242.34,43.74v0.03h8.9c0-1.02-0.08-1.86-0.23-2.52
		c-0.16-0.69-0.37-1.25-0.63-1.69c-0.33-0.53-0.79-0.96-1.36-1.29c-0.58-0.31-1.26-0.46-2.06-0.46c-1.28,0-2.35,0.51-3.19,1.53
		c-0.82,1-1.28,2.5-1.39,4.52L242.34,43.74z"/>
	<path class="st0" d="M257.92,53.67v0.03V40.32c0-0.93-0.07-1.66-0.2-2.19s-0.27-0.93-0.4-1.2l1.79-0.46
		c0.04,0.09,0.13,0.38,0.27,0.86c0.13,0.49,0.21,1.11,0.23,1.86c0.84-0.88,1.73-1.56,2.66-2.03c0.91-0.46,1.85-0.7,2.82-0.7
		c0.88,0,1.66,0.18,2.32,0.53s1.16,0.84,1.49,1.46c0.2,0.31,0.37,0.66,0.5,1.06c0.11,0.4,0.17,0.82,0.17,1.26v12.88h-1.86V41.72
		c0-0.77-0.07-1.37-0.2-1.79c-0.13-0.42-0.33-0.79-0.6-1.1c-0.22-0.24-0.53-0.43-0.93-0.56c-0.4-0.15-0.84-0.23-1.33-0.23
		c-0.8,0-1.65,0.23-2.56,0.7c-0.93,0.49-1.75,1.13-2.46,1.93v13.02h-1.79h0.08V53.67z"/>
	<path class="st0" d="M281.16,54.04c-1.31-0.02-2.41-0.3-3.32-0.83c-0.91-0.53-1.63-1.21-2.16-2.03c-0.51-0.75-0.9-1.64-1.16-2.66
		c-0.27-1.02-0.4-2.17-0.4-3.45c0-1.33,0.15-2.52,0.46-3.59c0.31-1.06,0.75-1.97,1.33-2.72c0.53-0.71,1.24-1.29,2.13-1.76
		c0.88-0.44,1.93-0.67,3.12-0.7c1.39,0.02,2.54,0.32,3.45,0.9s1.6,1.25,2.09,2.03c0.49,0.75,0.86,1.64,1.13,2.66
		c0.27,1.02,0.4,2.19,0.4,3.52c0,1.15-0.11,2.18-0.33,3.09c-0.22,0.93-0.53,1.75-0.93,2.46c-0.53,0.93-1.28,1.68-2.26,2.26
		c-0.95,0.58-2.09,0.86-3.42,0.86L281.16,54.04z M281.29,52.58v0.03c1.02,0,1.86-0.24,2.52-0.73c0.66-0.49,1.15-1.11,1.46-1.86
		c0.31-0.66,0.53-1.33,0.66-1.99s0.2-1.48,0.2-2.46c0-1.2-0.09-2.24-0.27-3.12c-0.18-0.88-0.42-1.64-0.73-2.26
		c-0.35-0.69-0.89-1.24-1.59-1.66c-0.71-0.42-1.53-0.63-2.46-0.63c-0.93,0.02-1.73,0.23-2.39,0.63s-1.15,0.89-1.46,1.46
		c-0.31,0.58-0.55,1.27-0.73,2.09c-0.18,0.82-0.27,1.76-0.27,2.82c0,1.22,0.11,2.31,0.33,3.29c0.2,0.97,0.48,1.75,0.83,2.32
		c0.33,0.53,0.83,1,1.49,1.39s1.46,0.61,2.39,0.63v0.05H281.29z"/>
	<path class="st0" d="M293.14,53.64v0.03V40.26c-0.02-1.11-0.1-1.93-0.23-2.46s-0.22-0.84-0.27-0.93l1.79-0.4
		c0.04,0.09,0.13,0.37,0.27,0.83c0.13,0.49,0.21,1.07,0.23,1.76c0.58-0.71,1.32-1.33,2.22-1.86c0.88-0.53,1.8-0.81,2.76-0.83
		c1.02,0,1.87,0.27,2.56,0.8c0.71,0.53,1.2,1.24,1.46,2.13c0.73-0.88,1.56-1.59,2.49-2.13s1.86-0.8,2.79-0.8
		c1.31,0.02,2.32,0.44,3.05,1.26c0.75,0.8,1.13,1.88,1.13,3.25v12.75h-1.93V41.02c0-0.93-0.22-1.66-0.66-2.19s-1.14-0.8-2.09-0.8
		c-0.8,0-1.58,0.24-2.36,0.73c-0.75,0.51-1.53,1.23-2.32,2.16v12.75h-1.86V41.29c0-0.53-0.04-1-0.13-1.39c-0.11-0.4-0.28-0.73-0.5-1
		s-0.51-0.46-0.86-0.6c-0.35-0.13-0.79-0.2-1.29-0.2c-0.71,0-1.44,0.21-2.19,0.63c-0.75,0.4-1.53,1.04-2.32,1.93v13.02h-1.76
		L293.14,53.64z"/>
	<path class="st0" d="M320.27,32.89c-0.42,0-0.78-0.14-1.06-0.43c-0.29-0.27-0.43-0.61-0.43-1.03s0.14-0.76,0.43-1.03
		c0.29-0.29,0.64-0.43,1.06-0.43c0.4,0,0.74,0.13,1.03,0.4s0.43,0.62,0.43,1.06c0,0.42-0.14,0.76-0.43,1.03
		C321.01,32.74,320.67,32.89,320.27,32.89z M319.27,53.61v0.03V36.71l1.93-0.3v17.27h-1.93V53.61z"/>
	<path class="st0" d="M332.99,53.8v0.03c-1.17,0-2.2-0.22-3.09-0.66c-0.89-0.44-1.62-1.08-2.19-1.93c-0.51-0.75-0.9-1.62-1.16-2.59
		c-0.27-0.97-0.4-2.1-0.4-3.39c0-1.81,0.22-3.28,0.66-4.38c0.44-1.11,1.02-2.01,1.73-2.72c0.66-0.64,1.36-1.12,2.09-1.43
		s1.53-0.46,2.39-0.46c1.02,0,1.88,0.17,2.59,0.5s1.33,0.76,1.86,1.29l-1,1.29c-0.58-0.51-1.13-0.87-1.66-1.1
		c-0.53-0.22-1.15-0.33-1.86-0.33s-1.37,0.16-1.99,0.46c-0.62,0.31-1.13,0.76-1.53,1.36c-0.44,0.62-0.78,1.42-1,2.39
		c-0.24,0.97-0.37,2.16-0.37,3.55c0,1.33,0.18,2.5,0.53,3.52s0.88,1.82,1.59,2.39c0.73,0.58,1.65,0.86,2.76,0.86
		c0.73,0,1.43-0.15,2.09-0.46c0.66-0.31,1.26-0.77,1.79-1.39l1.03,1.2c-0.71,0.75-1.46,1.31-2.26,1.66S333.93,54,332.95,54
		L332.99,53.8z"/>
	<path class="st0" d="M346.1,54v0.03c-1.08,0-2.14-0.14-3.15-0.43c-1.02-0.29-1.93-0.69-2.72-1.2l0.73-1.36
		c0.77,0.49,1.6,0.86,2.49,1.13c0.88,0.27,1.81,0.4,2.79,0.4c1.24,0,2.21-0.31,2.92-0.93c0.69-0.62,1.03-1.45,1.03-2.49
		c0-0.8-0.24-1.46-0.73-1.99c-0.49-0.53-1.28-0.92-2.39-1.16l-2.13-0.4c-1.33-0.27-2.35-0.77-3.05-1.53
		c-0.71-0.75-1.06-1.73-1.06-2.92c0.02-1.44,0.53-2.6,1.53-3.49c1-0.88,2.37-1.34,4.12-1.36c0.91,0,1.78,0.12,2.62,0.37
		c0.84,0.22,1.59,0.53,2.26,0.93l-0.73,1.36c-0.62-0.35-1.27-0.64-1.96-0.86s-1.41-0.33-2.16-0.33c-1.2,0.02-2.1,0.32-2.72,0.9
		s-0.93,1.33-0.93,2.26c0,0.8,0.23,1.44,0.7,1.93c0.46,0.46,1.17,0.8,2.13,1l2.19,0.46c1.53,0.31,2.64,0.85,3.35,1.63
		c0.69,0.78,1.03,1.74,1.03,2.89c-0.02,1.59-0.56,2.86-1.63,3.79c-1.06,0.95-2.51,1.44-4.35,1.46L346.1,54z"/>
</g>
<g>
	<path class="st0" d="M78.36,3.13l-0.03-0.01c-0.28,0-0.57,0.01-0.86,0.02c-0.55,0.03-1.11,0.04-1.67-0.01
		c-0.28-0.02-0.56-0.03-0.84-0.03c-0.09,0-0.18,0.01-0.26,0.03c-0.07,0.02-0.18,0.08-0.18,0.28c0,0.23,0.11,0.34,0.2,0.39
		c0.11,0.06,0.24,0.11,0.39,0.14c0.14,0.03,0.29,0.05,0.44,0.07c0.13,0.02,0.23,0.06,0.31,0.13s0.13,0.21,0.16,0.41
		c0.03,0.22,0.05,0.47,0.05,0.75s-0.01,0.58-0.02,0.88C76.04,6.49,76.03,6.76,76.03,7v3.37c0,0.31-0.03,0.61-0.09,0.9
		c-0.09,0.52-0.22,0.97-0.39,1.32c-0.16,0.35-0.37,0.64-0.63,0.86c-0.25,0.22-0.57,0.38-0.94,0.48c-0.37,0.1-0.83,0.15-1.36,0.15
		c-0.44,0-0.85-0.05-1.21-0.14c-0.35-0.09-0.66-0.25-0.91-0.48c-0.26-0.23-0.46-0.55-0.62-0.96s-0.26-0.94-0.3-1.58
		c-0.02-0.32-0.03-0.65-0.04-0.97c-0.01-0.33-0.01-0.65-0.01-0.98v-2.9c0-0.16,0-0.32,0.01-0.5s0.02-0.35,0.03-0.51
		c0.02-0.17,0.03-0.32,0.05-0.45c0.02-0.13,0.04-0.23,0.07-0.29c0.06-0.14,0.17-0.23,0.31-0.28c0.17-0.05,0.35-0.09,0.51-0.12
		c0.18-0.03,0.35-0.07,0.49-0.11c0.18-0.06,0.28-0.19,0.28-0.38c0-0.17-0.09-0.27-0.27-0.3c-0.13-0.02-0.24-0.03-0.33-0.03
		c-0.37,0-0.73,0.02-1.09,0.05c-0.66,0.06-1.38,0.07-2.06,0C67.2,3.12,66.86,3.1,66.52,3.1c-0.26,0-0.41,0.14-0.41,0.4
		c0,0.1,0.04,0.19,0.13,0.25c0.07,0.05,0.15,0.08,0.24,0.1c0.08,0.02,0.17,0.03,0.25,0.03c0.08,0.01,0.15,0.01,0.2,0.01h0.17
		c0.18,0,0.32,0.05,0.41,0.14c0.1,0.11,0.17,0.23,0.22,0.38c0.04,0.15,0.07,0.32,0.08,0.5c0,0.19,0.01,0.36,0.01,0.5
		c0,0.89-0.01,1.78-0.03,2.65c-0.02,0.89-0.03,1.79-0.03,2.65v0.58c0,0.1,0,0.19,0.01,0.29c0,0.1,0.01,0.19,0.02,0.29
		c0.06,0.62,0.22,1.14,0.47,1.56c0.25,0.41,0.57,0.74,0.96,0.99s0.83,0.42,1.32,0.53c0.49,0.1,1.01,0.15,1.55,0.15
		c0.45,0,0.93-0.03,1.4-0.1c0.48-0.07,0.94-0.19,1.39-0.36c0.52-0.2,0.93-0.5,1.21-0.88c0.28-0.37,0.49-0.8,0.63-1.27
		c0.14-0.46,0.22-0.96,0.25-1.46c0.03-0.51,0.04-1,0.04-1.46c0-0.28,0-0.57-0.01-0.85c-0.01-0.28-0.01-0.57-0.01-0.85
		c0-0.32,0-0.68-0.01-1.11c-0.01-0.42-0.01-0.82,0-1.21S77,4.82,77.03,4.54c0.04-0.38,0.11-0.42,0.11-0.42
		c0.02-0.01,0.09-0.04,0.27-0.07C77.57,4.03,77.73,4,77.9,3.96s0.33-0.09,0.46-0.16c0.2-0.1,0.24-0.25,0.24-0.35
		C78.65,3.35,78.6,3.21,78.36,3.13"/>
	<path class="st0" d="M93.74,3.12c-0.26,0-0.54,0.01-0.83,0.02c-0.6,0.03-1.25,0.03-1.83-0.01C90.74,3.11,90.4,3.1,90.07,3.1
		c-0.1,0-0.19,0.02-0.28,0.06c-0.07,0.04-0.16,0.12-0.16,0.3c0,0.22,0.12,0.35,0.34,0.38c0.17,0.02,0.37,0.03,0.59,0.04
		c0.21,0,0.4,0.03,0.59,0.09c0.16,0.05,0.26,0.17,0.3,0.36c0.03,0.12,0.05,0.25,0.05,0.39c0.01,0.14,0.01,0.28,0.01,0.42
		c0,0.82,0,1.64,0.01,2.46s0,1.64-0.01,2.46v1.93c0.01,0.17-0.03,0.22-0.07,0.24c-0.86-1.02-1.61-1.91-2.26-2.68
		c-0.66-0.77-1.25-1.47-1.78-2.08s-1.01-1.18-1.45-1.69c-0.44-0.51-0.86-1.02-1.29-1.53c-0.2-0.19-0.35-0.35-0.45-0.48
		C84.1,3.63,84,3.51,83.91,3.42c-0.1-0.1-0.2-0.18-0.31-0.23s-0.27-0.08-0.47-0.08c-0.18,0-0.36,0-0.52,0.02
		c-0.15,0.01-0.32,0.02-0.51,0.02c-0.24,0-0.46,0-0.67-0.02c-0.22-0.01-0.45-0.02-0.68-0.02c-0.09,0-0.19,0.03-0.32,0.09
		c-0.18,0.09-0.22,0.22-0.22,0.31c0,0.12,0.06,0.22,0.18,0.27c0.09,0.05,0.2,0.08,0.33,0.1c0.12,0.02,0.24,0.04,0.36,0.04
		c0.11,0,0.2,0.01,0.26,0.02c0.23,0.04,0.41,0.1,0.53,0.18c0.12,0.08,0.22,0.17,0.28,0.27c0.07,0.1,0.11,0.22,0.12,0.36
		c0.02,0.15,0.02,0.31,0.02,0.47c0,1.26-0.01,2.51-0.03,3.73l-0.06,3.73c0,0.15,0,0.3-0.02,0.45c-0.01,0.15-0.04,0.29-0.08,0.42
		c-0.04,0.12-0.11,0.23-0.2,0.31s-0.21,0.14-0.36,0.16c-0.08,0.01-0.18,0.02-0.31,0.02c-0.14,0.01-0.26,0.02-0.37,0.03
		c-0.12,0.02-0.23,0.05-0.32,0.1c-0.11,0.06-0.17,0.16-0.17,0.29c0,0.16,0.08,0.27,0.24,0.31c0.12,0.03,0.23,0.05,0.32,0.05
		c0.35,0,0.71-0.01,1.06-0.03c0.65-0.04,1.29-0.05,1.94,0c0.31,0.02,0.62,0.03,0.92,0.03c0.06,0,0.13-0.01,0.2-0.04
		c0.1-0.03,0.16-0.11,0.16-0.22c0-0.13-0.05-0.24-0.16-0.32c-0.09-0.06-0.18-0.11-0.28-0.13c-0.29-0.06-0.55-0.1-0.76-0.11
		c-0.19-0.01-0.34-0.05-0.46-0.12c-0.11-0.06-0.19-0.2-0.25-0.39c-0.06-0.21-0.09-0.56-0.09-1.03c0-0.79-0.01-1.52-0.02-2.17
		c-0.01-0.63-0.02-1.21-0.03-1.74c0-0.54-0.01-1.05-0.02-1.55c-0.01-0.52-0.02-1.06-0.02-1.6c0-0.12,0.01-0.23,0.02-0.35
		c0.17,0.16,0.33,0.33,0.47,0.53c0.19,0.25,0.37,0.48,0.55,0.69c0.64,0.75,1.21,1.41,1.7,1.99l0.53,0.62
		c0.6,0.7,1.11,1.29,1.51,1.75s0.71,0.82,0.93,1.08s0.38,0.45,0.49,0.57c0.1,0.12,0.17,0.2,0.2,0.23c0.03,0.04,0.05,0.06,0.05,0.06
		c0.31,0.39,0.61,0.75,0.89,1.09c0.3,0.36,0.6,0.72,0.9,1.07c0.03,0.04,0.07,0.09,0.12,0.15s0.1,0.11,0.14,0.17
		c0.06,0.06,0.11,0.11,0.17,0.15s0.12,0.06,0.18,0.06c0.02,0,0.04,0,0.05,0c0.18-0.03,0.29-0.15,0.31-0.35
		c0.02-0.16,0.02-0.33,0.02-0.5c0-1.04,0-1.94,0.01-2.71s0.01-1.46,0.01-2.07V6.37c0-0.1,0-0.27,0.01-0.49s0.02-0.45,0.03-0.68
		c0.02-0.23,0.04-0.45,0.09-0.66c0.05-0.24,0.1-0.35,0.14-0.4C92.7,4.07,92.8,4.02,92.94,4c0.16-0.03,0.33-0.05,0.5-0.06
		c0.17-0.02,0.33-0.04,0.47-0.08c0.17-0.05,0.27-0.17,0.27-0.34C94.19,3.35,94.13,3.12,93.74,3.12"/>
	<path class="st0" d="M99.28,6.86c0.02-0.67,0.02-1.33,0.02-1.97c0-0.19,0.01-0.35,0.02-0.48c0.01-0.12,0.04-0.21,0.1-0.29
		s0.16-0.13,0.3-0.17c0.15-0.04,0.36-0.06,0.64-0.06c0.16,0,0.29-0.02,0.41-0.05c0.09-0.02,0.24-0.1,0.24-0.36
		c0-0.04-0.01-0.1-0.04-0.17s-0.06-0.11-0.09-0.14l-0.03-0.03h-1.41c-0.15,0-0.31,0.01-0.47,0.02c-0.16,0.02-0.31,0.02-0.45,0.02
		c-0.3,0-0.61-0.02-0.91-0.05s-0.62-0.05-0.93-0.05h-0.17c-0.09,0-0.19,0.01-0.29,0.02c-0.15,0.02-0.23,0.12-0.23,0.28
		c0,0.24,0.11,0.33,0.21,0.37c0.11,0.05,0.25,0.08,0.4,0.09c0.14,0.01,0.29,0.03,0.45,0.05c0.14,0.02,0.26,0.08,0.35,0.18
		c0.04,0.05,0.09,0.16,0.12,0.4c0.03,0.21,0.05,0.4,0.05,0.57v0.3c0,0.26,0,0.52-0.01,0.79c0,0.26-0.01,0.53-0.01,0.81l-0.02,5.52
		v0.33c0,0.19-0.01,0.4-0.04,0.61c-0.02,0.19-0.08,0.32-0.17,0.39c-0.09,0.09-0.21,0.14-0.35,0.18c-0.16,0.04-0.3,0.07-0.45,0.09
		c-0.14,0.03-0.27,0.06-0.39,0.1c-0.19,0.07-0.22,0.21-0.22,0.29c0,0.17,0.07,0.28,0.21,0.34c0.11,0.04,0.22,0.06,0.34,0.06h0.22
		c0.32,0,0.61-0.02,0.87-0.06c0.47-0.07,1.1-0.07,1.71-0.01c0.46,0.05,0.9,0.07,1.37,0.02c0.2-0.02,0.32-0.15,0.32-0.36
		c0-0.08-0.03-0.22-0.25-0.28c-0.12-0.03-0.26-0.06-0.41-0.09s-0.31-0.06-0.47-0.09c-0.14-0.03-0.26-0.08-0.34-0.15
		c-0.11-0.1-0.17-0.24-0.2-0.43c-0.02-0.2-0.04-0.39-0.04-0.56V8.82C99.26,8.17,99.26,7.51,99.28,6.86"/>
	<path class="st0" d="M114.63,3.12c-0.24,0-0.48,0.01-0.72,0.04c-0.54,0.06-1.14,0.05-1.71-0.02c-0.35-0.04-0.7-0.06-1.04-0.06
		c-0.11,0-0.2,0.04-0.29,0.11c-0.08,0.08-0.12,0.17-0.12,0.28c0,0.2,0.12,0.34,0.33,0.39c0.17,0.04,0.37,0.07,0.57,0.09
		s0.38,0.06,0.54,0.12c0.08,0.03,0.19,0.1,0.19,0.33c0,0.03-0.02,0.14-0.16,0.59c-0.11,0.34-0.25,0.76-0.43,1.23
		c-0.17,0.48-0.36,1.01-0.57,1.57s-0.41,1.1-0.6,1.6c-0.2,0.51-0.37,0.95-0.52,1.35c-0.16,0.42-0.26,0.67-0.32,0.81l-0.05,0.12
		c-0.03,0.05-0.05,0.11-0.09,0.16c-0.03,0.05-0.06,0.08-0.1,0.12c-0.03-0.04-0.11-0.16-0.29-0.57c-0.16-0.35-0.34-0.79-0.55-1.31
		c-0.21-0.51-0.43-1.07-0.67-1.68c-0.24-0.6-0.46-1.18-0.67-1.73s-0.39-1.03-0.55-1.46c-0.16-0.42-0.26-0.71-0.32-0.87
		c-0.01-0.03-0.02-0.06-0.03-0.1c-0.01-0.03-0.01-0.05-0.01-0.08c0-0.13,0.05-0.2,0.15-0.23c0.14-0.05,0.3-0.07,0.47-0.08
		c0.19-0.01,0.36-0.03,0.51-0.05c0.26-0.04,0.3-0.2,0.3-0.3c0-0.12-0.05-0.23-0.14-0.31s-0.2-0.12-0.32-0.12
		c-0.38,0-0.75,0.02-1.1,0.05c-0.6,0.05-1.23,0.08-1.83,0c-0.25-0.03-0.51-0.05-0.77-0.05h-0.17c-0.12,0-0.23,0.02-0.35,0.06
		c-0.19,0.06-0.23,0.19-0.23,0.29c0,0.18,0.09,0.31,0.26,0.35c0.13,0.04,0.28,0.07,0.45,0.1s0.33,0.08,0.5,0.14
		c0.15,0.05,0.26,0.17,0.35,0.35c0.53,1.1,1.02,2.23,1.45,3.36s0.87,2.26,1.31,3.4c0.24,0.6,0.49,1.21,0.74,1.83s0.5,1.23,0.74,1.83
		c0.02,0.06,0.06,0.12,0.11,0.19c0.06,0.08,0.15,0.13,0.25,0.13c0.12,0,0.2-0.03,0.25-0.09c0.03-0.05,0.06-0.1,0.08-0.17
		c0.38-0.94,0.77-1.9,1.14-2.85c0.36-0.92,0.74-1.88,1.13-2.85c0.24-0.58,0.47-1.14,0.7-1.68c0.24-0.56,0.47-1.12,0.69-1.68
		c0.03-0.07,0.08-0.19,0.13-0.34c0.06-0.15,0.12-0.3,0.19-0.46s0.13-0.3,0.19-0.44c0.06-0.13,0.1-0.22,0.13-0.27
		c0.08-0.12,0.18-0.2,0.3-0.24c0.13-0.05,0.26-0.08,0.38-0.1c0.13-0.02,0.25-0.06,0.35-0.1c0.09-0.04,0.19-0.14,0.19-0.36
		c0-0.08-0.02-0.16-0.07-0.23C114.82,3.16,114.74,3.12,114.63,3.12"/>
	<path class="st0" d="M126.22,11.97c-0.12,0-0.24,0.09-0.36,0.27c-0.1,0.16-0.21,0.34-0.32,0.54c-0.11,0.19-0.23,0.39-0.35,0.59
		c-0.12,0.19-0.25,0.32-0.38,0.41c-0.08,0.05-0.17,0.09-0.29,0.11c-0.13,0.03-0.26,0.06-0.41,0.07c-0.15,0.02-0.31,0.03-0.48,0.04
		s-0.32,0.02-0.45,0.02h-0.49c-0.09,0-0.25,0-0.47-0.01s-0.45-0.01-0.68-0.02s-0.45-0.03-0.66-0.05c-0.24-0.03-0.36-0.07-0.41-0.09
		c-0.1-0.05-0.17-0.13-0.22-0.23c-0.05-0.11-0.09-0.24-0.12-0.37c-0.02-0.14-0.04-0.28-0.04-0.41c-0.01-0.14-0.01-0.27-0.01-0.38
		V9.97c0-0.04,0-0.12-0.01-0.23c-0.01-0.1,0-0.2,0.01-0.3s0.03-0.19,0.05-0.27c0.02-0.06,0.04-0.07,0.05-0.07
		c0.04-0.01,0.1-0.02,0.19-0.03s0.18-0.02,0.27-0.02h0.03c0.09,0,0.17-0.01,0.24-0.01c0.08-0.01,0.15-0.01,0.2-0.01
		c0.2,0,0.43,0,0.69-0.01h0.09c0.22,0,0.43,0.02,0.63,0.05c0.22,0.03,0.42,0.1,0.58,0.19c0.15,0.09,0.24,0.21,0.28,0.38l0.01,0.03
		c0.03,0.04,0.05,0.12,0.07,0.23c0.02,0.12,0.05,0.25,0.07,0.37c0.03,0.13,0.06,0.24,0.11,0.34c0.07,0.17,0.18,0.2,0.26,0.2
		c0.1,0,0.19-0.04,0.24-0.11c0.05-0.06,0.08-0.14,0.09-0.23c0.01-0.08,0.01-0.16,0.01-0.25c0-0.08-0.01-0.14-0.01-0.19
		c0-0.22-0.01-0.44-0.02-0.66c-0.01-0.22-0.02-0.44-0.02-0.65c0-0.22,0.01-0.44,0.02-0.66c0.01-0.22,0.02-0.45,0.02-0.67
		c0-0.12-0.01-0.23-0.02-0.34c-0.02-0.15-0.12-0.24-0.28-0.24c-0.15,0-0.22,0.07-0.26,0.13s-0.08,0.12-0.11,0.19l-0.01,0.04
		c-0.02,0.29-0.09,0.53-0.22,0.73c-0.12,0.19-0.32,0.3-0.61,0.35c-0.28,0.04-0.56,0.06-0.85,0.07c-0.29,0.01-0.58,0.01-0.87,0.01
		c-0.06,0-0.14,0-0.24,0.01c-0.09,0.01-0.19,0.01-0.28,0c-0.1-0.01-0.18-0.02-0.26-0.04c-0.05-0.01-0.09-0.03-0.12-0.06
		c-0.02-0.07-0.03-0.17-0.03-0.29V7.59c0-0.36,0-0.72-0.01-1.07c0-0.36-0.01-0.71-0.01-1.07c0-0.18,0.01-0.36,0.02-0.56
		c0.01-0.18,0.04-0.35,0.1-0.5c0.05-0.14,0.13-0.25,0.24-0.34s0.27-0.13,0.49-0.13h0.69c0.21,0,0.43,0,0.67,0.01
		c0.23,0.01,0.46,0.02,0.68,0.04c0.23,0.02,0.42,0.05,0.59,0.08s0.3,0.08,0.38,0.12c0.13,0.07,0.23,0.19,0.3,0.34
		c0.08,0.17,0.15,0.35,0.21,0.52c0.06,0.18,0.13,0.34,0.19,0.48c0.1,0.2,0.24,0.25,0.35,0.25l0,0c0.2-0.02,0.24-0.29,0.25-0.37
		c0.03-0.19,0.04-0.39,0.04-0.6c0-0.19,0-0.35,0.01-0.48s0.01-0.25,0.01-0.34c0-0.19-0.02-0.39-0.06-0.61
		c-0.02-0.09-0.09-0.19-0.28-0.23c-0.12-0.02-0.24-0.03-0.36-0.03h-0.17c-0.75,0-1.47,0.01-2.14,0.02c-0.69,0.02-1.4,0.02-2.13,0.02
		c-0.37,0-0.73-0.01-1.08-0.02c-0.34-0.02-0.71-0.02-1.08-0.02c-0.09,0-0.21,0-0.34-0.01c-0.14,0-0.27,0-0.4,0.02
		c-0.13,0.02-0.24,0.05-0.34,0.09c-0.12,0.05-0.19,0.15-0.19,0.29c0,0.11,0.04,0.29,0.33,0.34c0.16,0.03,0.35,0.05,0.56,0.08
		c0.19,0.02,0.37,0.08,0.54,0.16c0.14,0.07,0.22,0.23,0.24,0.48c0.01,0.05,0.02,0.09,0.02,0.12V5.1c0,0.85,0,1.7,0.02,2.54
		c0.01,0.81,0.02,1.67,0.02,2.54c0,0.26,0.01,0.57,0.02,0.92c0.01,0.35,0.02,0.7,0.02,1.04s-0.02,0.64-0.05,0.92
		c-0.03,0.27-0.08,0.46-0.16,0.57c-0.08,0.12-0.21,0.21-0.37,0.27c-0.17,0.06-0.34,0.12-0.53,0.16c-0.18,0.04-0.34,0.08-0.48,0.13
		c-0.22,0.07-0.26,0.19-0.26,0.28c0,0.28,0.16,0.34,0.26,0.35c0.12,0.01,0.24,0.02,0.36,0.02c0.16,0,0.32-0.01,0.47-0.02
		s0.3-0.02,0.44-0.02h7.44c0.21,0,0.37-0.08,0.47-0.23l0.01-0.03c0.07-0.34,0.13-0.61,0.18-0.81l0.13-0.58
		c0.04-0.18,0.07-0.29,0.07-0.3c0.01-0.03,0.02-0.06,0.05-0.19c0.02-0.09,0.03-0.13,0.03-0.15c0.04-0.1,0.06-0.2,0.04-0.3
		C126.51,12.1,126.45,11.97,126.22,11.97"/>
	<path class="st0" d="M134.3,8.15c-0.26,0.17-0.56,0.3-0.92,0.36c-0.36,0.07-0.75,0.1-1.17,0.1c-0.18,0-0.31-0.01-0.39-0.04
		s-0.1-0.07-0.11-0.1c-0.02-0.06-0.03-0.14-0.02-0.24c0-0.11,0.01-0.25,0.01-0.41c0-0.42,0-0.89,0.02-1.42
		c0.01-0.53,0.02-1,0.02-1.42V4.44c0-0.23,0.05-0.4,0.15-0.51c0.07-0.07,0.23-0.16,0.65-0.16c0.38,0,0.73,0.05,1.04,0.16
		c0.31,0.11,0.58,0.26,0.81,0.47s0.41,0.46,0.54,0.76c0.13,0.3,0.2,0.66,0.2,1.06c0,0.49-0.07,0.89-0.22,1.2
		C134.76,7.73,134.55,7.97,134.3,8.15 M139.48,14.86c-0.11-0.03-0.23-0.06-0.35-0.12c-0.42-0.09-0.8-0.28-1.12-0.57
		c-0.33-0.29-0.63-0.64-0.9-1.03c-0.27-0.39-0.52-0.82-0.73-1.26c-0.22-0.45-0.43-0.87-0.62-1.27c-0.2-0.4-0.39-0.76-0.59-1.04
		c-0.15-0.22-0.31-0.39-0.47-0.5c0.22-0.11,0.44-0.24,0.67-0.38c0.28-0.18,0.54-0.39,0.77-0.63c0.23-0.24,0.42-0.51,0.57-0.8
		c0.15-0.3,0.22-0.63,0.22-0.98c0-0.63-0.12-1.16-0.36-1.58c-0.24-0.41-0.54-0.74-0.9-0.98c-0.35-0.24-0.74-0.41-1.15-0.5
		c-0.4-0.09-0.79-0.14-1.14-0.14c-0.41,0-0.81,0.01-1.21,0.02c-0.39,0.02-0.8,0.02-1.2,0.02h-1.37c-0.11,0-0.23-0.01-0.35-0.02
		c-0.25-0.02-0.5-0.03-0.72,0.03c-0.09,0.02-0.24,0.09-0.24,0.35c0,0.13,0.07,0.23,0.19,0.28c0.09,0.03,0.21,0.06,0.35,0.07
		c0.13,0.01,0.27,0.02,0.42,0.03c0.14,0.01,0.27,0.04,0.39,0.08c0.11,0.04,0.2,0.11,0.28,0.21c0.07,0.1,0.11,0.24,0.11,0.43
		c0,0.88-0.01,1.77-0.02,2.66c-0.02,0.89-0.02,1.79-0.02,2.67v3.25c0,0.2-0.04,0.36-0.11,0.47c-0.08,0.11-0.17,0.2-0.29,0.27
		s-0.25,0.11-0.39,0.14c-0.15,0.03-0.28,0.05-0.42,0.07c-0.13,0.02-0.25,0.05-0.34,0.07c-0.17,0.05-0.19,0.17-0.19,0.24
		c0,0.19,0.03,0.29,0.11,0.34c0.06,0.04,0.16,0.05,0.32,0.05c0.33,0,0.66-0.02,0.98-0.05c0.67-0.07,1.38-0.06,2.07,0.01
		c0.37,0.04,0.76,0.05,1.14,0.05c0.23,0,0.39-0.02,0.5-0.05c0.08-0.03,0.23-0.11,0.23-0.36c0-0.13-0.07-0.22-0.18-0.25
		c-0.08-0.02-0.17-0.03-0.26-0.03c-0.06,0-0.08-0.01-0.08-0.01l-0.02-0.01c-0.21-0.04-0.41-0.07-0.58-0.1
		c-0.16-0.02-0.29-0.06-0.4-0.11c-0.1-0.05-0.18-0.14-0.24-0.26c-0.06-0.12-0.09-0.32-0.09-0.57V9.82c0-0.31,0.04-0.42,0.06-0.46
		c0.01-0.02,0.07-0.08,0.3-0.08c0.36,0,0.66,0.09,0.9,0.27c0.25,0.18,0.47,0.41,0.66,0.69s0.36,0.6,0.51,0.95
		c0.15,0.36,0.32,0.71,0.49,1.04c0.32,0.83,0.79,1.54,1.41,2.12c0.61,0.58,1.38,0.95,2.3,1.11c0.07,0.01,0.16,0.02,0.27,0.03
		s0.22,0.02,0.33,0.02c0.27,0,0.47-0.02,0.6-0.07l0.04-0.02c0.12-0.12,0.17-0.21,0.17-0.31C139.74,15.06,139.71,14.91,139.48,14.86"
		/>
	<path class="st0" d="M146.94,8.7c-0.36-0.23-0.78-0.46-1.25-0.68c-0.46-0.22-0.91-0.46-1.32-0.71s-0.76-0.54-1.04-0.86
		c-0.27-0.31-0.41-0.68-0.41-1.1c0-0.27,0.05-0.51,0.15-0.73c0.1-0.22,0.24-0.4,0.41-0.55s0.38-0.27,0.61-0.34
		c0.23-0.08,0.49-0.12,0.75-0.12c0.32,0,0.63,0.11,0.94,0.31c0.31,0.21,0.55,0.51,0.71,0.9c0.06,0.09,0.1,0.21,0.13,0.34
		c0.03,0.14,0.06,0.28,0.1,0.41c0.03,0.13,0.07,0.25,0.12,0.36c0.1,0.22,0.24,0.19,0.33,0.21c0.11,0.03,0.24,0.03,0.33-0.06
		c0.05-0.05,0.08-0.12,0.11-0.25c0.04-0.55,0.06-1.1,0.05-1.65c0-0.11,0.01-0.25,0.02-0.4c0.02-0.16,0.02-0.32,0.02-0.47
		s-0.01-0.29-0.03-0.4c-0.04-0.2-0.17-0.24-0.24-0.24c-0.19,0-0.33,0.06-0.43,0.18c-0.08,0.1-0.16,0.21-0.21,0.32
		c-0.05,0.1-0.1,0.17-0.15,0.22c-0.02,0.02-0.04,0.03-0.14-0.02c-0.19-0.12-0.43-0.24-0.71-0.36c-0.28-0.12-0.55-0.18-0.78-0.18
		c-0.48,0-0.94,0.07-1.38,0.22s-0.82,0.36-1.14,0.63c-0.33,0.28-0.59,0.62-0.77,1.03c-0.19,0.41-0.28,0.87-0.28,1.39
		c0,0.59,0.14,1.08,0.42,1.48c0.27,0.39,0.62,0.74,1.02,1.03c0.4,0.29,0.85,0.56,1.32,0.79c0.46,0.23,0.9,0.48,1.29,0.73
		c0.39,0.26,0.72,0.55,0.98,0.88c0.25,0.32,0.38,0.72,0.38,1.19c0,0.32-0.05,0.61-0.16,0.86s-0.26,0.47-0.45,0.65
		s-0.41,0.32-0.67,0.41c-0.25,0.09-0.54,0.14-0.84,0.14c-0.41,0-0.82-0.11-1.2-0.33c-0.38-0.21-0.66-0.52-0.84-0.91
		c-0.05-0.1-0.09-0.22-0.13-0.36c-0.04-0.15-0.07-0.29-0.1-0.42c-0.03-0.14-0.07-0.25-0.12-0.35c-0.07-0.16-0.18-0.19-0.26-0.19
		c-0.02,0-0.05,0-0.08-0.01c-0.1-0.03-0.23-0.03-0.33,0.05c-0.06,0.05-0.09,0.13-0.1,0.25c-0.02,0.27-0.03,0.52-0.04,0.74
		s-0.01,0.47-0.01,0.74c0,0.11-0.01,0.26-0.02,0.45c-0.02,0.2-0.02,0.38-0.02,0.56s0.01,0.35,0.03,0.48
		c0.04,0.24,0.17,0.28,0.24,0.28c0.19,0,0.32-0.04,0.41-0.13c0.08-0.07,0.15-0.16,0.21-0.26c0.05-0.08,0.1-0.16,0.16-0.23
		c0.08-0.09,0.31-0.09,0.54,0.01c0.13,0.05,0.27,0.11,0.43,0.17c0.15,0.06,0.32,0.11,0.5,0.17c0.18,0.05,0.38,0.08,0.59,0.08
		c0.55-0.01,1.07-0.09,1.53-0.25c0.47-0.16,0.88-0.39,1.22-0.69c0.34-0.3,0.61-0.68,0.8-1.13s0.28-0.97,0.28-1.56
		c-0.01-0.55-0.15-1.07-0.4-1.56C147.75,9.41,147.39,9.01,146.94,8.7"/>
	<path class="st0" d="M154.06,6.86c0.02-0.65,0.02-1.31,0.02-1.97c0-0.19,0-0.35,0.02-0.48c0.01-0.12,0.04-0.21,0.1-0.29
		c0.06-0.08,0.16-0.13,0.3-0.17c0.15-0.04,0.36-0.06,0.64-0.06c0.16,0,0.29-0.02,0.41-0.05c0.09-0.02,0.24-0.1,0.24-0.36
		c0-0.04-0.01-0.1-0.04-0.17s-0.05-0.11-0.09-0.14l-0.03-0.03h-1.41c-0.15,0-0.31,0.01-0.47,0.02c-0.16,0.02-0.31,0.02-0.45,0.02
		c-0.3,0-0.61-0.02-0.91-0.05c-0.31-0.03-0.62-0.05-0.93-0.05h-0.17c-0.09,0-0.19,0.01-0.29,0.02c-0.15,0.02-0.23,0.12-0.23,0.28
		c0,0.24,0.11,0.33,0.21,0.37c0.11,0.05,0.25,0.08,0.4,0.09s0.29,0.03,0.45,0.05c0.14,0.02,0.26,0.09,0.35,0.18
		c0.04,0.05,0.09,0.16,0.12,0.4c0.03,0.21,0.05,0.4,0.05,0.57v0.3c0,0.26,0,0.52-0.01,0.79c-0.01,0.26-0.01,0.53-0.01,0.81
		l-0.02,5.52v0.33c0,0.19-0.01,0.4-0.04,0.61c-0.02,0.19-0.08,0.32-0.17,0.39c-0.09,0.08-0.21,0.14-0.35,0.18
		c-0.16,0.04-0.3,0.07-0.44,0.09c-0.14,0.03-0.27,0.06-0.38,0.1c-0.19,0.07-0.22,0.21-0.22,0.29c0,0.17,0.08,0.28,0.21,0.34
		c0.11,0.04,0.22,0.06,0.34,0.06h0.22c0.32,0,0.61-0.02,0.87-0.06c0.46-0.07,1.1-0.07,1.71-0.01c0.46,0.05,0.9,0.07,1.37,0.02
		c0.2-0.02,0.31-0.15,0.31-0.36c0-0.08-0.03-0.22-0.24-0.28c-0.12-0.03-0.26-0.06-0.41-0.09c-0.15-0.03-0.31-0.06-0.47-0.09
		c-0.15-0.03-0.26-0.08-0.34-0.15c-0.11-0.1-0.17-0.24-0.2-0.43c-0.02-0.2-0.04-0.39-0.04-0.56V8.82
		C154.04,8.16,154.05,7.49,154.06,6.86"/>
	<path class="st0" d="M168.11,2.52c-0.06,0-0.15,0.03-0.22,0.15c-0.04,0.07-0.09,0.14-0.15,0.22s-0.13,0.15-0.21,0.22
		c-0.07,0.06-0.16,0.1-0.26,0.12c-0.16,0.02-0.31,0.03-0.47,0.04c-0.68,0.02-1.33,0.01-1.94,0.02c-1.04,0.03-2.26,0.02-3.39-0.01
		c-0.64-0.02-1.29-0.04-1.93-0.07c-0.14-0.01-0.25-0.04-0.32-0.09c-0.08-0.06-0.14-0.12-0.19-0.18c-0.05-0.07-0.09-0.12-0.13-0.18
		c-0.07-0.1-0.15-0.12-0.21-0.12c-0.16,0-0.29,0.04-0.38,0.13c-0.08,0.08-0.15,0.18-0.19,0.3c-0.04,0.11-0.06,0.24-0.08,0.38V3.5
		c-0.01,0.11-0.02,0.22-0.03,0.32c-0.05,0.54-0.12,0.96-0.2,1.25c-0.08,0.3-0.13,0.56-0.13,0.74c0,0.15,0.04,0.25,0.11,0.31
		s0.17,0.08,0.3,0.08c0.08,0,0.16-0.07,0.28-0.27c0.09-0.16,0.19-0.32,0.28-0.5c0.1-0.18,0.18-0.36,0.27-0.53
		c0.1-0.2,0.16-0.28,0.19-0.31c0.2-0.19,0.4-0.32,0.62-0.38c0.22-0.07,0.44-0.1,0.67-0.1h0.98c0.25,0,0.48,0.02,0.69,0.05
		c0.2,0.03,0.28,0.08,0.28,0.12c0.01,0.04,0.02,0.14,0.02,0.28c0.01,0.14,0.01,0.24,0.01,0.29v7.63c0,0.29-0.02,0.53-0.05,0.73
		c-0.03,0.18-0.09,0.34-0.17,0.46c-0.08,0.11-0.21,0.21-0.38,0.27c-0.17,0.07-0.41,0.12-0.72,0.15c-0.02,0.01-0.07,0.01-0.18,0.01
		c-0.12,0-0.23,0.02-0.34,0.06c-0.09,0.04-0.2,0.13-0.2,0.33c0,0.23,0.15,0.28,0.22,0.29c0.09,0.01,0.18,0.02,0.27,0.02
		c0.38,0,0.76-0.01,1.13-0.04c0.75-0.05,1.61-0.05,2.37,0c0.42,0.03,0.84,0.04,1.26,0.04c0.13,0,0.24-0.01,0.33-0.02
		c0.13-0.02,0.19-0.14,0.19-0.36c0-0.1-0.05-0.28-0.36-0.32l-0.62-0.07c-0.22-0.02-0.43-0.09-0.63-0.18
		c-0.18-0.08-0.29-0.26-0.34-0.52c-0.03-0.16-0.05-0.33-0.05-0.49c0-0.17-0.01-0.33-0.01-0.5c0.02-0.93,0.02-1.87-0.01-2.78
		c-0.03-0.92-0.03-1.85-0.01-2.77l0.03-1.92c0-0.24,0.01-0.41,0.04-0.52c0.03-0.13,0.06-0.18,0.08-0.2
		c0.02-0.03,0.05-0.04,0.09-0.04l0,0c0.14,0.01,0.29,0.01,0.53,0c0.29-0.01,0.69-0.01,1.09,0.02c0.24,0.02,0.46,0.04,0.66,0.08
		c0.2,0.03,0.37,0.09,0.52,0.17c0.13,0.07,0.22,0.15,0.26,0.26c0.06,0.14,0.08,0.3,0.07,0.46c-0.01,0.18-0.03,0.34-0.04,0.49
		c-0.02,0.17-0.01,0.3,0.01,0.41c0.02,0.08,0.08,0.23,0.31,0.23c0.21,0,0.35-0.14,0.43-0.42c0.07-0.23,0.12-0.51,0.16-0.83
		c0.04-0.31,0.07-0.64,0.09-0.97c0.02-0.32,0.07-0.58,0.14-0.77c0.05-0.14,0.05-0.28-0.01-0.44C168.5,2.67,168.39,2.52,168.11,2.52"
		/>
	<path class="st0" d="M182.4,3.19c-0.14-0.06-0.28-0.09-0.44-0.09c-0.27,0-0.55,0.02-0.82,0.06c-0.49,0.07-1.02,0.07-1.51,0.01
		c-0.24-0.03-0.49-0.05-0.74-0.05c-0.11,0-0.2,0.01-0.27,0.03c-0.1,0.03-0.16,0.13-0.16,0.31c0,0.19,0.11,0.32,0.3,0.36
		c0.15,0.03,0.32,0.05,0.49,0.06s0.32,0.04,0.46,0.08c0.07,0.02,0.15,0.07,0.15,0.24c0,0.01-0.02,0.07-0.18,0.32
		c-0.13,0.2-0.28,0.43-0.48,0.72c-0.19,0.28-0.41,0.59-0.64,0.92c-0.24,0.35-0.46,0.65-0.67,0.93c-0.21,0.29-0.4,0.54-0.57,0.76
		c-0.16,0.21-0.27,0.35-0.33,0.41c-0.02,0.02-0.05,0.04-0.08,0.07c-0.02,0.01-0.03,0.02-0.04,0.03c-0.02-0.01-0.03-0.02-0.04-0.04
		c-0.03-0.04-0.06-0.08-0.09-0.12c-0.27-0.34-0.54-0.69-0.78-1.04c-0.25-0.36-0.51-0.73-0.76-1.1c-0.09-0.13-0.21-0.28-0.36-0.47
		c-0.14-0.17-0.27-0.36-0.41-0.56s-0.25-0.38-0.34-0.55c-0.09-0.16-0.14-0.3-0.14-0.39c0-0.1,0.04-0.15,0.14-0.17
		c0.14-0.02,0.3-0.04,0.47-0.04c0.18-0.01,0.34-0.02,0.49-0.05c0.19-0.03,0.3-0.17,0.3-0.37c0-0.09-0.05-0.17-0.16-0.24
		c-0.1-0.06-0.18-0.09-0.25-0.09c-0.4,0-0.82,0.02-1.23,0.06c-0.67,0.06-1.39,0.09-2.05-0.01c-0.29-0.04-0.59-0.06-0.88-0.06
		c-0.09,0-0.17,0.01-0.25,0.02c-0.06,0.01-0.19,0.05-0.19,0.27c0,0.16,0.08,0.27,0.24,0.32c0.11,0.04,0.25,0.07,0.43,0.11
		c0.15,0.03,0.32,0.09,0.5,0.16c0.16,0.07,0.29,0.18,0.4,0.33c0.57,0.82,1.14,1.63,1.7,2.41c0.57,0.8,1.14,1.61,1.69,2.4
		c0.12,0.17,0.18,0.34,0.19,0.55c0.01,0.23,0.02,0.5,0.02,0.82v1.39c0,0.19,0,0.39-0.01,0.6c-0.01,0.22-0.02,0.41-0.03,0.59
		c-0.02,0.18-0.04,0.34-0.07,0.48c-0.03,0.13-0.07,0.22-0.1,0.26c-0.1,0.11-0.24,0.18-0.41,0.21c-0.19,0.03-0.38,0.06-0.57,0.09
		s-0.35,0.07-0.48,0.14c-0.09,0.04-0.23,0.16-0.15,0.42c0.01,0.09,0.06,0.15,0.14,0.17c0.05,0.01,0.09,0.02,0.13,0.02
		c0.38,0,0.76-0.02,1.14-0.06c0.76-0.07,1.57-0.07,2.35,0c0.42,0.04,0.84,0.06,1.25,0.06c0.19,0,0.28-0.09,0.32-0.16
		c0.05-0.09,0.08-0.19,0.08-0.3l-0.01-0.04c-0.05-0.13-0.15-0.22-0.29-0.25c-0.11-0.03-0.24-0.04-0.39-0.05
		c-0.14-0.01-0.28-0.01-0.44-0.02c-0.14-0.01-0.27-0.04-0.38-0.1c-0.11-0.05-0.2-0.15-0.27-0.28c-0.08-0.14-0.11-0.34-0.11-0.61
		V9.93c0-0.22,0.06-0.45,0.17-0.68c0.11-0.24,0.26-0.49,0.45-0.73c0.18-0.25,0.38-0.49,0.58-0.72c0.22-0.26,0.4-0.48,0.56-0.68
		c0.37-0.47,0.73-0.95,1.1-1.42c0.35-0.46,0.73-0.92,1.12-1.38c0.11-0.12,0.22-0.21,0.34-0.25c0.13-0.05,0.25-0.09,0.37-0.11
		c0.13-0.02,0.25-0.04,0.36-0.07c0.13-0.03,0.23-0.1,0.28-0.22c0.05-0.1,0.05-0.18,0.03-0.26C182.54,3.28,182.48,3.23,182.4,3.19"/>
	<g>
		<path class="st0" d="M194.89,12.72c-0.15,0.41-0.38,0.77-0.69,1.07s-0.74,0.5-1.28,0.59c-0.21,0.04-0.42,0.06-0.61,0.06
			c-0.31,0-0.6-0.05-0.85-0.15c-0.42-0.17-0.77-0.42-1.07-0.75c-0.29-0.33-0.53-0.72-0.71-1.15c-0.18-0.44-0.31-0.88-0.39-1.32
			c-0.08-0.42-0.12-0.87-0.12-1.33c0.01-0.45,0.08-0.88,0.22-1.28c0.14-0.39,0.37-0.74,0.68-1.03s0.75-0.49,1.29-0.59
			c0.21-0.04,0.4-0.06,0.59-0.06c0.28,0,0.55,0.04,0.79,0.13c0.41,0.14,0.77,0.37,1.07,0.67c0.31,0.31,0.56,0.68,0.76,1.1
			c0.2,0.43,0.35,0.89,0.44,1.36c0.07,0.42,0.11,0.88,0.1,1.34C195.11,11.86,195.03,12.3,194.89,12.72 M195.28,7.39
			c-0.41-0.38-0.89-0.68-1.43-0.89s-1.12-0.32-1.73-0.32c-0.63,0-1.22,0.12-1.75,0.34c-0.53,0.23-1,0.55-1.39,0.95
			s-0.7,0.88-0.91,1.43c-0.22,0.55-0.32,1.15-0.32,1.78c0,0.64,0.11,1.23,0.32,1.77s0.51,1.01,0.89,1.4s0.84,0.7,1.37,0.93
			c0.53,0.22,1.11,0.33,1.73,0.33c0.63,0,1.23-0.12,1.79-0.36c0.55-0.24,1.04-0.57,1.46-0.99c0.41-0.41,0.74-0.9,0.97-1.45
			c0.24-0.55,0.36-1.14,0.36-1.76c0-0.65-0.12-1.24-0.36-1.78C196.02,8.23,195.69,7.77,195.28,7.39"/>
		<path class="st0" d="M203.51,6.67c-0.01-0.11-0.04-0.25-0.17-0.27c-0.01,0-0.04,0-0.08,0c-0.05,0-0.1-0.01-0.17-0.01h-0.25
			c-0.35,0-0.69,0-1.03,0.01c-0.34,0-0.68,0.01-1.03,0.01h-1.76c-0.06,0-0.17,0-0.33-0.01c-0.16,0-0.34-0.01-0.52-0.01
			c-0.2,0-0.35,0-0.46,0.01c-0.12,0.01-0.21,0.02-0.28,0.04c-0.08,0.03-0.14,0.07-0.16,0.12c-0.02,0.04-0.03,0.09-0.03,0.16
			c0,0.11,0.06,0.19,0.16,0.22c0.07,0.02,0.15,0.03,0.25,0.04c0.09,0,0.18,0.01,0.28,0.02c0.09,0.01,0.17,0.03,0.25,0.06
			c0.07,0.03,0.13,0.09,0.18,0.17c0.05,0.08,0.08,0.2,0.08,0.36c0,0.73,0.01,1.46,0.02,2.24c0.01,0.7,0.02,1.44,0.02,2.23v0.42
			c0,0.14,0,0.28-0.01,0.45c0,0.16-0.01,0.32-0.02,0.48c-0.01,0.15-0.02,0.29-0.03,0.41c-0.02,0.14-0.04,0.2-0.05,0.23
			c-0.05,0.12-0.13,0.19-0.28,0.22c-0.04,0.01-0.1,0.02-0.19,0.04c-0.1,0.01-0.19,0.02-0.28,0.04c-0.1,0.02-0.19,0.05-0.26,0.08
			c-0.14,0.07-0.16,0.17-0.16,0.23c0,0.13,0.08,0.22,0.21,0.24c0.09,0.01,0.16,0.02,0.23,0.02c0.22,0,0.44-0.01,0.64-0.04
			c0.45-0.06,0.98-0.04,1.46,0c0.28,0.03,0.57,0.04,0.85,0.04h0.11c0.09,0,0.17-0.02,0.25-0.05c0.11-0.04,0.17-0.12,0.17-0.23
			c0-0.15-0.09-0.26-0.25-0.29c-0.12-0.03-0.25-0.05-0.41-0.06c-0.15-0.02-0.29-0.04-0.43-0.09c-0.12-0.04-0.21-0.12-0.27-0.25
			c0,0-0.01-0.02-0.01-0.09s-0.01-0.15-0.02-0.24c-0.01-0.08-0.01-0.17-0.01-0.26v-0.5c0-0.34,0-0.68,0.01-1.01s0.01-0.67,0.01-1.01
			c0-0.06,0.02-0.08,0.04-0.09c0.05-0.03,0.1-0.05,0.16-0.06c0.07-0.01,0.15-0.01,0.23-0.01c0.09,0,0.15,0.01,0.21,0.01h0.31
			c0.17,0,0.36,0.01,0.57,0.02c0.2,0.01,0.35,0.03,0.46,0.07c0.14,0.04,0.24,0.11,0.31,0.22c0.07,0.13,0.13,0.25,0.16,0.37l0.1,0.36
			c0.06,0.2,0.18,0.23,0.25,0.23c0.11,0,0.17-0.05,0.2-0.1c0.04-0.05,0.06-0.11,0.07-0.18c0.01-0.07,0.02-0.14,0.01-0.19
			c0-0.05-0.01-0.1-0.01-0.15c0-0.17-0.01-0.34-0.02-0.5c-0.01-0.15-0.02-0.31-0.02-0.48s0-0.33,0.01-0.48
			c0.01-0.16,0.01-0.33,0.01-0.49c0-0.05-0.01-0.11-0.02-0.17c-0.02-0.14-0.11-0.18-0.19-0.18c-0.16,0-0.24,0.08-0.28,0.14
			c-0.04,0.07-0.08,0.16-0.1,0.26c-0.02,0.09-0.05,0.18-0.08,0.29c-0.03,0.09-0.08,0.17-0.14,0.23c-0.04,0.04-0.11,0.08-0.19,0.1
			c-0.09,0.03-0.21,0.05-0.34,0.07c-0.13,0.02-0.26,0.03-0.4,0.03s-0.28,0.01-0.4,0.01h-0.41c-0.09,0-0.16,0-0.24,0.01h-0.03
			c-0.05,0-0.09-0.01-0.13-0.02c-0.03-0.01-0.06-0.04-0.08-0.07c-0.02-0.02-0.04-0.08-0.04-0.22c0-0.34,0-0.68,0-1.02
			s-0.01-0.68-0.01-1.02c0-0.15,0.01-0.29,0.03-0.41c0.02-0.1,0.08-0.19,0.18-0.27c0.05-0.03,0.14-0.06,0.34-0.09
			c0.18-0.02,0.34-0.03,0.48-0.03h0.25c0.08,0,0.19,0,0.33,0.01s0.28,0.01,0.43,0.02s0.29,0.02,0.42,0.04s0.23,0.04,0.3,0.06
			c0.14,0.05,0.24,0.13,0.29,0.25c0.06,0.13,0.1,0.27,0.13,0.4c0.03,0.14,0.06,0.27,0.09,0.38c0.04,0.15,0.15,0.23,0.31,0.23
			c0.09,0,0.15-0.04,0.18-0.08s0.06-0.1,0.06-0.16c0.01-0.05,0.01-0.1,0.01-0.16V7.87c0-0.06,0-0.16,0.01-0.3c0-0.14,0-0.29,0-0.44
			C203.53,6.92,203.52,6.79,203.51,6.67"/>
		<path class="st0" d="M218.8,3.99c0.03-0.32,0.07-0.58,0.14-0.77c0.05-0.14,0.05-0.29-0.01-0.44c-0.04-0.12-0.15-0.27-0.43-0.27
			c-0.06,0-0.15,0.03-0.22,0.15c-0.04,0.07-0.09,0.14-0.15,0.22S218,3.03,217.92,3.1c-0.07,0.06-0.16,0.1-0.26,0.12
			c-0.16,0.02-0.31,0.03-0.47,0.04c-0.68,0.02-1.33,0.01-1.94,0.02c-1.04,0.02-2.26,0.02-3.39-0.01c-0.63-0.02-1.29-0.04-1.93-0.07
			c-0.14-0.01-0.25-0.04-0.32-0.09c-0.08-0.06-0.15-0.12-0.19-0.18c-0.05-0.07-0.09-0.13-0.13-0.18c-0.07-0.1-0.16-0.12-0.21-0.12
			c-0.16,0-0.29,0.04-0.38,0.13c-0.09,0.08-0.15,0.18-0.19,0.3c-0.04,0.11-0.07,0.24-0.08,0.38c-0.01,0.13-0.02,0.25-0.03,0.37
			c-0.05,0.54-0.12,0.96-0.2,1.25c-0.09,0.31-0.13,0.56-0.13,0.74c0,0.15,0.04,0.25,0.12,0.31c0.07,0.06,0.17,0.09,0.3,0.09
			c0.08,0,0.16-0.07,0.28-0.27c0.09-0.16,0.19-0.32,0.28-0.5s0.18-0.36,0.27-0.53c0.1-0.2,0.16-0.28,0.18-0.3
			c0.2-0.19,0.4-0.31,0.62-0.38s0.44-0.1,0.67-0.1h0.98c0.25,0,0.48,0.02,0.69,0.06c0.25,0.04,0.28,0.11,0.28,0.12
			c0.01,0.05,0.02,0.18,0.02,0.27c0,0.14,0.01,0.24,0.01,0.29v7.63c0,0.29-0.02,0.53-0.04,0.72c-0.03,0.18-0.09,0.34-0.17,0.46
			s-0.21,0.21-0.37,0.28c-0.17,0.07-0.41,0.12-0.72,0.15c-0.02,0.01-0.07,0.01-0.18,0.01c-0.12,0-0.23,0.02-0.34,0.06
			c-0.09,0.04-0.2,0.12-0.2,0.33c0,0.23,0.15,0.28,0.22,0.28c0.09,0.01,0.18,0.02,0.27,0.02c0.38,0,0.76-0.01,1.13-0.04
			c0.75-0.05,1.62-0.05,2.37,0c0.42,0.03,0.84,0.04,1.26,0.04c0.13,0,0.25-0.01,0.33-0.02c0.13-0.02,0.19-0.14,0.19-0.36
			c0-0.1-0.05-0.28-0.36-0.32l-0.62-0.07c-0.22-0.03-0.44-0.09-0.63-0.18c-0.18-0.09-0.29-0.26-0.34-0.52
			c-0.03-0.16-0.05-0.32-0.05-0.49c-0.01-0.17-0.01-0.33-0.01-0.5c0.02-0.92,0.02-1.86-0.01-2.78c-0.03-0.9-0.03-1.84-0.01-2.77
			l0.03-1.92c0-0.24,0.01-0.41,0.04-0.52c0.03-0.13,0.06-0.18,0.08-0.2c0.03-0.02,0.05-0.04,0.09-0.04c0.14,0.01,0.29,0.01,0.53,0
			c0.29-0.01,0.69-0.01,1.09,0.02c0.23,0.02,0.46,0.04,0.66,0.08s0.37,0.09,0.52,0.16c0.13,0.07,0.22,0.15,0.26,0.26
			c0.06,0.14,0.08,0.3,0.07,0.46c-0.01,0.18-0.02,0.34-0.04,0.49c-0.02,0.17-0.02,0.3,0.01,0.41c0.02,0.08,0.08,0.23,0.31,0.23
			c0.14,0,0.33-0.07,0.43-0.42c0.07-0.23,0.12-0.51,0.16-0.84C218.74,4.65,218.77,4.32,218.8,3.99"/>
		<path class="st0" d="M225.32,8.79c-0.65,0-1.15,0-1.5,0.01c-0.36,0-0.63,0.01-0.81,0.01h-0.28l0.47-1.11
			c0.14-0.33,0.26-0.62,0.36-0.88s0.21-0.51,0.31-0.76c0.08-0.2,0.18-0.42,0.29-0.68c0.02,0.06,0.05,0.14,0.09,0.24
			c0.09,0.26,0.2,0.56,0.32,0.92c0.13,0.36,0.26,0.75,0.41,1.17c0.13,0.38,0.26,0.74,0.39,1.08C225.35,8.77,225.33,8.78,225.32,8.79
			 M230.48,14.09c-0.13-0.04-0.28-0.07-0.45-0.1c-0.16-0.03-0.33-0.08-0.5-0.14c-0.15-0.06-0.26-0.17-0.35-0.35
			c-0.53-1.11-1.05-2.24-1.53-3.36c-0.47-1.1-0.94-2.25-1.39-3.4c-0.24-0.6-0.49-1.21-0.74-1.83s-0.5-1.23-0.74-1.83
			c-0.02-0.06-0.06-0.12-0.11-0.19c-0.06-0.08-0.15-0.13-0.25-0.13c-0.12,0-0.2,0.03-0.24,0.1c-0.03,0.05-0.06,0.11-0.08,0.17
			c-0.39,0.96-0.78,1.91-1.17,2.85c-0.39,0.95-0.78,1.9-1.17,2.85l-0.69,1.68c-0.23,0.55-0.45,1.11-0.67,1.68
			c-0.03,0.07-0.08,0.19-0.13,0.34c-0.06,0.15-0.12,0.31-0.19,0.46l-0.2,0.45c-0.07,0.17-0.11,0.23-0.14,0.26
			c-0.08,0.13-0.18,0.21-0.29,0.24c-0.13,0.04-0.25,0.07-0.37,0.09c-0.13,0.02-0.24,0.05-0.33,0.1c-0.08,0.04-0.18,0.14-0.18,0.35
			c0,0.08,0.02,0.16,0.07,0.23c0.04,0.06,0.11,0.12,0.24,0.12c0.24,0,0.46-0.02,0.67-0.04c0.47-0.06,1.08-0.05,1.66,0.02
			c0.35,0.04,0.7,0.06,1.04,0.06c0.11,0,0.2-0.04,0.29-0.11c0.08-0.08,0.13-0.18,0.13-0.29c0-0.2-0.12-0.34-0.33-0.39
			c-0.16-0.04-0.35-0.06-0.57-0.09c-0.2-0.02-0.38-0.06-0.54-0.12c-0.08-0.03-0.19-0.1-0.19-0.33c0-0.02,0.01-0.1,0.1-0.42
			c0.07-0.24,0.16-0.54,0.28-0.89c0.11-0.35,0.26-0.75,0.42-1.19c0.15-0.41,0.32-0.84,0.51-1.27c0.12-0.03,0.27-0.04,0.45-0.05
			c0.42-0.02,0.85-0.02,1.25-0.01c0.21,0.01,0.37,0.01,0.5,0.01h0.3c0.17,0,0.34,0.01,0.51,0.02c0.15,0.01,0.25,0.05,0.32,0.12
			c0,0,0.02,0.02,0.06,0.13c0.04,0.09,0.08,0.18,0.14,0.28c0.16,0.38,0.31,0.75,0.46,1.1c0.15,0.36,0.28,0.68,0.39,0.97l0.3,0.77
			c0.08,0.21,0.14,0.37,0.17,0.47l0.03,0.1c0.01,0.03,0.01,0.05,0.01,0.08c0,0.17-0.08,0.22-0.15,0.24
			c-0.14,0.04-0.29,0.07-0.48,0.08s-0.36,0.03-0.5,0.05c-0.26,0.04-0.3,0.2-0.3,0.3c0,0.12,0.05,0.23,0.14,0.31s0.2,0.12,0.32,0.12
			c0.37,0,0.74-0.02,1.1-0.05c0.61-0.05,1.22-0.08,1.83,0c0.25,0.03,0.51,0.05,0.77,0.05h0.17c0.11,0,0.23-0.02,0.35-0.06
			c0.2-0.07,0.23-0.21,0.23-0.29C230.73,14.27,230.64,14.14,230.48,14.09"/>
		<path class="st0" d="M238.23,8.13c-0.25,0.17-0.56,0.3-0.92,0.36c-0.36,0.07-0.75,0.1-1.16,0.1c-0.18,0-0.31-0.01-0.39-0.04
			s-0.1-0.07-0.11-0.1c-0.02-0.06-0.03-0.14-0.02-0.24c0-0.11,0.01-0.25,0.01-0.41c0-0.42,0-0.89,0.02-1.42
			c0.01-0.53,0.02-1,0.02-1.42V4.42c0-0.23,0.05-0.4,0.15-0.51c0.07-0.07,0.23-0.16,0.65-0.16c0.38,0,0.73,0.05,1.04,0.16
			c0.31,0.11,0.58,0.26,0.81,0.47s0.41,0.46,0.54,0.76c0.13,0.3,0.2,0.66,0.2,1.06c0,0.49-0.07,0.89-0.22,1.2
			C238.69,7.72,238.48,7.96,238.23,8.13 M243.41,14.85c-0.11-0.02-0.23-0.06-0.35-0.12c-0.42-0.09-0.8-0.28-1.12-0.57
			c-0.33-0.29-0.63-0.64-0.9-1.03c-0.27-0.39-0.52-0.81-0.73-1.26c-0.22-0.45-0.43-0.87-0.62-1.27c-0.2-0.41-0.39-0.75-0.59-1.04
			c-0.15-0.23-0.31-0.39-0.47-0.5c0.22-0.11,0.44-0.24,0.67-0.38c0.28-0.18,0.54-0.39,0.77-0.63c0.23-0.24,0.42-0.51,0.57-0.81
			c0.15-0.3,0.22-0.63,0.22-0.98c0-0.63-0.12-1.16-0.36-1.58c-0.24-0.41-0.54-0.74-0.9-0.98c-0.35-0.24-0.74-0.41-1.15-0.5
			c-0.4-0.09-0.79-0.14-1.14-0.14c-0.41,0-0.81,0.01-1.21,0.02c-0.39,0.02-0.8,0.02-1.2,0.02h-1.37c-0.11,0-0.23-0.01-0.35-0.02
			c-0.25-0.02-0.5-0.03-0.72,0.03c-0.09,0.02-0.24,0.09-0.24,0.35c0,0.14,0.07,0.23,0.19,0.28c0.09,0.03,0.21,0.06,0.35,0.07
			c0.13,0.01,0.27,0.02,0.42,0.03c0.14,0.01,0.27,0.04,0.39,0.08c0.11,0.04,0.2,0.11,0.28,0.21c0.07,0.1,0.11,0.24,0.11,0.43
			c0,0.88-0.01,1.77-0.02,2.66c-0.02,0.89-0.02,1.79-0.02,2.67v3.25c0,0.2-0.04,0.36-0.11,0.47c-0.08,0.11-0.17,0.2-0.29,0.27
			s-0.25,0.11-0.39,0.14c-0.15,0.03-0.28,0.05-0.42,0.07c-0.13,0.02-0.25,0.05-0.34,0.07c-0.17,0.05-0.19,0.17-0.19,0.24
			c0,0.19,0.03,0.29,0.11,0.34c0.06,0.04,0.16,0.05,0.32,0.05c0.33,0,0.66-0.02,0.98-0.05c0.67-0.07,1.38-0.06,2.07,0.01
			c0.37,0.04,0.76,0.05,1.14,0.05c0.23,0,0.39-0.02,0.5-0.05c0.09-0.03,0.23-0.11,0.23-0.36c0-0.13-0.07-0.22-0.18-0.25
			c-0.08-0.02-0.17-0.04-0.26-0.04c-0.06,0-0.08-0.01-0.08-0.01l-0.02-0.01c-0.22-0.04-0.4-0.07-0.58-0.09
			c-0.16-0.02-0.29-0.06-0.4-0.12c-0.1-0.05-0.18-0.14-0.24-0.26c-0.06-0.12-0.09-0.32-0.09-0.57V9.79c0-0.31,0.04-0.42,0.06-0.46
			c0.01-0.02,0.07-0.08,0.3-0.08c0.36,0,0.66,0.09,0.9,0.27c0.25,0.18,0.47,0.41,0.65,0.69c0.19,0.28,0.36,0.6,0.51,0.95
			c0.15,0.36,0.32,0.71,0.49,1.04c0.32,0.83,0.79,1.54,1.4,2.12c0.62,0.58,1.39,0.95,2.3,1.11c0.07,0.01,0.16,0.02,0.27,0.03
			s0.22,0.02,0.33,0.02c0.28,0,0.47-0.02,0.6-0.07l0.04-0.02c0.12-0.12,0.17-0.21,0.17-0.31C243.67,15.04,243.64,14.9,243.41,14.85"
			/>
		<path class="st0" d="M253.88,2.51c-0.06,0-0.15,0.03-0.22,0.15c-0.04,0.07-0.09,0.14-0.15,0.22s-0.13,0.15-0.21,0.22
			c-0.07,0.06-0.16,0.1-0.26,0.12c-0.15,0.02-0.31,0.03-0.47,0.04c-0.69,0.02-1.32,0.01-1.94,0.02c-1.04,0.03-2.26,0.02-3.39-0.01
			c-0.63-0.02-1.29-0.04-1.94-0.07c-0.14-0.01-0.25-0.04-0.32-0.09c-0.08-0.06-0.14-0.11-0.19-0.18c-0.05-0.07-0.09-0.12-0.13-0.18
			c-0.07-0.1-0.15-0.12-0.21-0.12c-0.16,0-0.29,0.04-0.38,0.13c-0.09,0.08-0.15,0.18-0.19,0.3c-0.04,0.11-0.06,0.24-0.08,0.38
			l-0.03,0.37c-0.05,0.54-0.12,0.96-0.2,1.25c-0.09,0.31-0.13,0.55-0.13,0.74c0,0.15,0.04,0.25,0.12,0.31
			c0.07,0.06,0.17,0.08,0.3,0.08c0.08,0,0.16-0.07,0.28-0.27c0.1-0.16,0.19-0.33,0.28-0.5s0.17-0.33,0.24-0.48l0.03-0.05
			c0.1-0.2,0.16-0.28,0.18-0.31c0.2-0.19,0.41-0.32,0.62-0.38s0.44-0.1,0.67-0.1h0.98c0.25,0,0.48,0.02,0.69,0.05
			c0.2,0.03,0.28,0.08,0.28,0.12c0.01,0.04,0.02,0.13,0.02,0.27c0.01,0.14,0.01,0.24,0.01,0.29v7.63c0,0.29-0.02,0.53-0.04,0.73
			c-0.03,0.18-0.09,0.34-0.17,0.46c-0.08,0.11-0.21,0.21-0.37,0.27c-0.17,0.07-0.41,0.12-0.72,0.15c-0.02,0.01-0.07,0.01-0.18,0.01
			s-0.23,0.02-0.34,0.06c-0.09,0.04-0.2,0.12-0.2,0.33c0,0.23,0.15,0.28,0.22,0.29c0.09,0.01,0.18,0.02,0.27,0.02
			c0.38,0,0.76-0.01,1.13-0.04c0.75-0.05,1.61-0.05,2.37,0c0.42,0.03,0.84,0.04,1.26,0.04c0.13,0,0.25-0.01,0.33-0.02
			c0.13-0.02,0.19-0.14,0.19-0.36c0-0.1-0.05-0.28-0.36-0.32l-0.62-0.07c-0.22-0.02-0.43-0.09-0.63-0.18
			c-0.18-0.09-0.29-0.26-0.34-0.52c-0.03-0.16-0.05-0.33-0.05-0.49c-0.01-0.17-0.01-0.33-0.01-0.5c0.02-0.93,0.02-1.87-0.01-2.78
			c-0.03-0.9-0.03-1.83-0.01-2.77l0.03-1.92c0-0.24,0.01-0.41,0.04-0.52c0.03-0.13,0.07-0.18,0.09-0.2
			c0.02-0.03,0.05-0.04,0.09-0.04c0.14,0.01,0.29,0.01,0.53,0c0.29-0.01,0.69-0.01,1.09,0.02c0.23,0.02,0.46,0.04,0.66,0.08
			s0.38,0.09,0.52,0.17c0.13,0.07,0.22,0.15,0.26,0.26c0.06,0.14,0.08,0.3,0.07,0.46c-0.01,0.18-0.02,0.34-0.04,0.49
			c-0.02,0.17-0.02,0.3,0.01,0.41c0.02,0.08,0.08,0.22,0.31,0.22c0.21,0,0.35-0.14,0.43-0.42c0.07-0.23,0.12-0.51,0.16-0.84
			c0.03-0.31,0.07-0.63,0.09-0.97c0.03-0.32,0.07-0.58,0.14-0.77c0.05-0.14,0.05-0.28-0.01-0.44
			C254.27,2.66,254.16,2.51,253.88,2.51"/>
		<path class="st0" d="M268.63,3.12l-0.03-0.01c-0.28,0-0.57,0.01-0.86,0.02c-0.55,0.03-1.11,0.03-1.66-0.01
			c-0.28-0.02-0.56-0.03-0.83-0.03c-0.09,0-0.18,0.01-0.26,0.04c-0.07,0.02-0.18,0.08-0.18,0.28c0,0.23,0.11,0.34,0.2,0.39
			c0.11,0.06,0.24,0.11,0.39,0.14c0.14,0.03,0.29,0.05,0.44,0.07c0.13,0.02,0.23,0.06,0.31,0.13s0.13,0.21,0.16,0.41
			c0.03,0.22,0.05,0.47,0.05,0.75s0,0.58-0.02,0.88c-0.01,0.31-0.02,0.58-0.02,0.82v3.37c0,0.3-0.03,0.6-0.09,0.9
			c-0.09,0.52-0.22,0.97-0.39,1.33c-0.16,0.35-0.37,0.64-0.63,0.86c-0.25,0.22-0.57,0.38-0.94,0.48s-0.83,0.15-1.36,0.15
			c-0.44,0-0.85-0.05-1.21-0.14c-0.35-0.09-0.66-0.25-0.91-0.48c-0.26-0.23-0.47-0.55-0.62-0.96c-0.16-0.41-0.26-0.94-0.3-1.58
			c-0.02-0.31-0.03-0.63-0.04-0.97c-0.01-0.33-0.01-0.65-0.01-0.98v-2.9c0-0.16,0-0.32,0.01-0.5c0.01-0.17,0.02-0.35,0.03-0.51
			c0.02-0.17,0.03-0.32,0.05-0.45s0.04-0.23,0.07-0.29c0.06-0.14,0.16-0.23,0.31-0.28c0.17-0.05,0.35-0.09,0.52-0.12
			c0.18-0.03,0.35-0.07,0.49-0.11c0.18-0.06,0.28-0.19,0.28-0.38c0-0.16-0.09-0.27-0.27-0.3c-0.13-0.02-0.24-0.03-0.33-0.03
			c-0.37,0-0.73,0.02-1.09,0.05c-0.66,0.06-1.38,0.07-2.06,0c-0.33-0.03-0.67-0.05-1.01-0.05c-0.26,0-0.41,0.15-0.41,0.4
			c0,0.1,0.04,0.19,0.13,0.25c0.07,0.05,0.15,0.08,0.24,0.1c0.08,0.02,0.16,0.03,0.25,0.03c0.08,0.01,0.15,0.01,0.2,0.01h0.17
			c0.18,0,0.32,0.05,0.41,0.14c0.1,0.1,0.17,0.23,0.21,0.38c0.05,0.15,0.07,0.32,0.08,0.51c0,0.19,0.01,0.35,0.01,0.5
			c0,0.9-0.01,1.79-0.03,2.65c-0.02,0.89-0.03,1.78-0.03,2.65v0.58c0,0.09,0,0.19,0.01,0.29c0.01,0.09,0.01,0.19,0.02,0.29
			c0.06,0.62,0.22,1.14,0.47,1.55s0.57,0.74,0.96,0.99c0.39,0.25,0.83,0.42,1.32,0.53c0.49,0.1,1.01,0.15,1.55,0.15
			c0.45,0,0.93-0.03,1.4-0.1c0.48-0.07,0.94-0.19,1.39-0.36c0.52-0.2,0.93-0.5,1.21-0.88c0.28-0.37,0.49-0.8,0.63-1.27
			c0.14-0.46,0.22-0.95,0.25-1.46s0.04-1,0.04-1.46c0-0.28,0-0.57-0.01-0.85c-0.01-0.28-0.01-0.57-0.01-0.85c0-0.31,0-0.68-0.01-1.1
			s-0.01-0.82,0-1.21c0.01-0.38,0.02-0.72,0.05-1.01c0.04-0.38,0.11-0.42,0.11-0.43c0.02-0.01,0.08-0.04,0.27-0.07
			c0.16-0.02,0.32-0.05,0.49-0.09c0.18-0.04,0.33-0.09,0.46-0.16c0.2-0.1,0.24-0.25,0.24-0.35C268.92,3.34,268.87,3.2,268.63,3.12"
			/>
	</g>
</g>
</svg>
